<?xml version="1.0" encoding="UTF-8" standalone="no"?>
<svg
   version="1.1"
   width="539.52002"
   height="41.880001"
   viewBox="0 0 539.52001 41.880002"
   id="svg129"
   sodipodi:docname="a.svg"
   inkscape:version="1.3 (0e150ed6c4, 2023-07-21)"
   xmlns:inkscape="http://www.inkscape.org/namespaces/inkscape"
   xmlns:sodipodi="http://sodipodi.sourceforge.net/DTD/sodipodi-0.dtd"
   xmlns="http://www.w3.org/2000/svg"
   xmlns:svg="http://www.w3.org/2000/svg">
  <sodipodi:namedview
     id="namedview129"
     pagecolor="#ffffff"
     bordercolor="#999999"
     borderopacity="1"
     inkscape:showpageshadow="2"
     inkscape:pageopacity="0"
     inkscape:pagecheckerboard="0"
     inkscape:deskcolor="#d1d1d1"
     inkscape:zoom="2.7346298"
     inkscape:cx="262.37555"
     inkscape:cy="117.74903"
     inkscape:window-width="1920"
     inkscape:window-height="1010"
     inkscape:window-x="-7"
     inkscape:window-y="-7"
     inkscape:window-maximized="1"
     inkscape:current-layer="svg129" />
  <defs
     id="defs15">
    <clipPath
       id="clip_0">
      <path
         transform="scale(0.75)"
         d="M 0.32,0 V 1122.56 H 793.76 V 0 Z"
         fill-rule="evenodd"
         id="path1" />
    </clipPath>
    <clipPath
       id="clip_1">
      <path
         transform="scale(0.75)"
         d="M 110.24,38.56 H 217.28 V 93.6 H 110.24 Z"
         fill-rule="evenodd"
         id="path2" />
    </clipPath>
    <clipPath
       id="clip_2">
      <path
         transform="scale(0.75)"
         d="M 0.32,0 V 1122.56 H 793.76 V 0 Z"
         fill-rule="evenodd"
         id="path3" />
    </clipPath>
    <clipPath
       id="clip_3">
      <path
         transform="scale(0.75)"
         d="M 0.32,0 V 1122.56 H 793.76 V 0 Z"
         fill-rule="evenodd"
         id="path4" />
    </clipPath>
    <clipPath
       id="clip_4">
      <path
         transform="scale(0.75)"
         d="m 415.36,38.56 h 107.2 V 93.6 h -107.2 z"
         fill-rule="evenodd"
         id="path5" />
    </clipPath>
    <clipPath
       id="clip_5">
      <path
         transform="scale(0.75)"
         d="M 0.32,0 V 1122.56 H 793.76 V 0 Z"
         fill-rule="evenodd"
         id="path6" />
    </clipPath>
    <clipPath
       id="clip_6">
      <path
         transform="scale(0.75)"
         d="M 0.32,0 V 1122.56 H 793.76 V 0 Z"
         fill-rule="evenodd"
         id="path7" />
    </clipPath>
    <clipPath
       id="clip_7">
      <path
         transform="scale(0.75)"
         d="M 567.2,38.56 H 674.4 V 93.6 H 567.2 Z"
         fill-rule="evenodd"
         id="path8" />
    </clipPath>
    <clipPath
       id="clip_8">
      <path
         transform="scale(0.75)"
         d="M 0.32,0 V 1122.56 H 793.76 V 0 Z"
         fill-rule="evenodd"
         id="path9" />
    </clipPath>
    <clipPath
       id="clip_9">
      <path
         transform="scale(0.75)"
         d="M 0.32,0 V 1122.56 H 793.76 V 0 Z"
         fill-rule="evenodd"
         id="path10" />
    </clipPath>
    <clipPath
       id="clip_10">
      <path
         transform="scale(0.75)"
         d="M 0.32,0 V 1122.56 H 793.76 V 0 Z"
         fill-rule="evenodd"
         id="path11" />
    </clipPath>
    <clipPath
       id="clip_11">
      <path
         transform="scale(0.75)"
         d="m 262.72,38.56 h 107.2 V 93.6 h -107.2 z"
         fill-rule="evenodd"
         id="path12" />
    </clipPath>
    <clipPath
       id="clip_12">
      <path
         transform="scale(0.75)"
         d="M 0.32,0 V 1122.56 H 793.76 V 0 Z"
         fill-rule="evenodd"
         id="path13" />
    </clipPath>
    <clipPath
       id="clip_13">
      <path
         transform="scale(0.75)"
         d="M 0.32,0 V 1122.56 H 793.76 V 0 Z"
         fill-rule="evenodd"
         id="path14" />
    </clipPath>
    <clipPath
       id="clip_14">
      <path
         transform="scale(0.75)"
         d="M 0.32,0 V 1122.56 H 793.76 V 0 Z"
         fill-rule="evenodd"
         id="path15" />
    </clipPath>
  </defs>
  <path
     d="M 0,0 H 539.52 V 41.88 H 0 Z"
     fill="#ffffff"
     id="path16"
     style="stroke-width:0.75" />
  <g
     clip-path="url(#clip_0)"
     id="g19"
     transform="translate(-28.56,-28.32)">
    <path
       transform="scale(0.75)"
       stroke-width="0.961"
       stroke-linecap="butt"
       stroke-miterlimit="10"
       stroke-linejoin="miter"
       fill="none"
       stroke="#000000"
       d="M 214.55,67.18 H 259.9"
       id="path17" />
    <path
       transform="scale(0.75)"
       d="m 264.38,67.18 -5.93,2.94 1.45,-2.94 -1.45,-3.11 z"
       id="path18" />
    <path
       transform="scale(0.75)"
       stroke-width="0.961"
       stroke-linecap="butt"
       stroke-miterlimit="10"
       stroke-linejoin="miter"
       fill="none"
       stroke="#000000"
       d="m 264.38,67.18 -5.93,2.94 1.45,-2.94 -1.45,-3.11 z"
       id="path19" />
  </g>
  <path
     d="m 55.92,2.64 h 76.44 V 41.52 H 55.92 Z"
     fill="#ffffff"
     id="path20"
     style="stroke-width:0.75" />
  <g
     clip-path="url(#clip_1)"
     id="g21"
     transform="translate(-28.56,-28.32)">
    <path
       transform="scale(0.75)"
       stroke-width="0.961"
       stroke-linecap="butt"
       stroke-miterlimit="4"
       stroke-linejoin="miter"
       fill="none"
       stroke="#000000"
       d="M 112.8,41.2 H 214.55 V 93.16 H 112.8 Z"
       id="path21" />
  </g>
  <g
     clip-path="url(#clip_2)"
     id="g24"
     transform="translate(-28.56,-28.32)">
    <path
       transform="scale(0.75)"
       d="m 147.09,70.12 v -7.35 h 0.96 v 6.53 h 3.52 v 0.82 z"
       id="path22" />
    <path
       transform="matrix(0.75,0,0,0.75,115.36501,52.590005)"
       d="m 0,0 v -6.54 h -2.41 v -0.81 h 5.77 v 0.81 H 0.96 V 0 Z"
       id="path23" />
    <path
       transform="matrix(0.75,0,0,0.75,120.1725,52.590005)"
       d="m 0,0 -2.73,-7.35 h 0.96 l 1.93,5.39 c 0.16,0.49 0.32,0.82 0.32,1.14 0.16,-0.32 0.32,-0.65 0.48,-1.14 L 2.88,-7.35 H 3.84 L 1.12,0 Z"
       id="path24" />
  </g>
  <path
     d="m 94.32,21.96 h 2.28 v 0.72 h -2.28 z m 3.12,-3.24 h 0.84 v 5.64 h -0.84 z m 2.16,0 h 0.84 v 5.64 H 99.6 Z"
     fill-rule="evenodd"
     id="path25"
     style="stroke-width:0.75" />
  <g
     clip-path="url(#clip_3)"
     id="g29"
     transform="translate(-28.56,-28.32)">
    <path
       transform="matrix(0.75,0,0,0.75,130.14749,52.590005)"
       d="m 0,0 v -7.35 h 3.2 c 0.64,0 1.12,0 1.44,0.16 0.32,0.16 0.65,0.33 0.81,0.82 0.16,0.32 0.32,0.65 0.32,0.98 0,0.65 -0.16,0.98 -0.48,1.47 -0.33,0.32 -0.81,0.49 -1.61,0.65 0.32,0.16 0.48,0.16 0.64,0.33 0.32,0.33 0.48,0.65 0.8,0.98 L 6.41,0 H 5.12 L 4.16,-1.47 C 3.84,-1.96 3.68,-2.29 3.52,-2.45 3.36,-2.78 3.2,-2.94 3.04,-2.94 2.88,-3.11 2.72,-3.11 2.56,-3.27 c -0.16,0 -0.32,0 -0.48,0 H 0.96 V 0 Z m 0.96,-4.09 h 2.08 c 0.32,0 0.8,0 0.96,-0.16 0.32,0 0.48,-0.16 0.64,-0.49 C 4.64,-4.9 4.8,-5.07 4.8,-5.39 4.8,-5.72 4.64,-6.05 4.48,-6.21 4.16,-6.37 3.68,-6.54 3.2,-6.54 H 0.96 Z"
       id="path26" />
    <path
       transform="scale(0.75)"
       stroke-width="0.961"
       stroke-linecap="butt"
       stroke-miterlimit="10"
       stroke-linejoin="miter"
       fill="none"
       stroke="#000000"
       d="m 519.8,67.18 h 44.55"
       id="path27" />
    <path
       transform="scale(0.75)"
       d="m 568.83,67.18 -5.93,2.94 1.45,-2.94 -1.45,-3.11 z"
       id="path28" />
    <path
       transform="scale(0.75)"
       stroke-width="0.961"
       stroke-linecap="butt"
       stroke-miterlimit="10"
       stroke-linejoin="miter"
       fill="none"
       stroke="#000000"
       d="m 568.83,67.18 -5.93,2.94 1.45,-2.94 -1.45,-3.11 z"
       id="path29" />
  </g>
  <path
     d="m 284.88,2.64 h 76.44 v 38.88 h -76.44 z"
     fill="#ffffff"
     id="path30"
     style="stroke-width:0.75" />
  <g
     clip-path="url(#clip_4)"
     id="g31"
     transform="translate(-28.56,-28.32)">
    <path
       transform="scale(0.75)"
       stroke-width="0.961"
       stroke-linecap="butt"
       stroke-miterlimit="4"
       stroke-linejoin="miter"
       fill="none"
       stroke="#000000"
       d="M 418.05,41.2 H 519.8 V 93.16 H 418.05 Z"
       id="path31" />
  </g>
  <g
     clip-path="url(#clip_5)"
     id="g34"
     transform="translate(-28.56,-28.32)">
    <path
       transform="scale(0.75)"
       d="m 452.34,70.12 v -7.35 h 0.96 v 6.53 h 3.53 v 0.82 z"
       id="path32" />
    <path
       transform="matrix(0.75,0,0,0.75,344.3025,52.590005)"
       d="m 0,0 v -6.54 h -2.41 v -0.81 h 5.77 v 0.81 H 0.96 V 0 Z"
       id="path33" />
    <path
       transform="matrix(0.75,0,0,0.75,349.11003,52.590005)"
       d="m 0,0 -2.72,-7.35 h 0.96 l 1.92,5.39 c 0.16,0.49 0.32,0.82 0.48,1.14 0,-0.32 0.16,-0.65 0.32,-1.14 L 2.88,-7.35 H 3.85 L 1.12,0 Z"
       id="path34" />
  </g>
  <path
     d="m 323.28,21.96 h 2.16 v 0.72 h -2.16 z m 3,-3.24 h 0.84 v 5.64 h -0.84 z m 2.16,0 h 0.84 v 5.64 h -0.84 z"
     fill-rule="evenodd"
     id="path35"
     style="stroke-width:0.75" />
  <g
     clip-path="url(#clip_6)"
     id="g39"
     transform="translate(-28.56,-28.32)">
    <path
       transform="matrix(0.75,0,0,0.75,359.085,52.590005)"
       d="m 0,0 v -7.35 h 3.2 c 0.65,0 1.13,0 1.45,0.16 0.32,0.16 0.64,0.33 0.8,0.82 0.32,0.32 0.32,0.65 0.32,0.98 0,0.65 -0.16,0.98 -0.48,1.47 -0.32,0.32 -0.8,0.49 -1.6,0.65 0.32,0.16 0.48,0.16 0.64,0.33 0.32,0.33 0.48,0.65 0.8,0.98 L 6.41,0 H 5.13 L 4.17,-1.47 C 4.01,-1.96 3.69,-2.29 3.52,-2.45 3.36,-2.78 3.2,-2.94 3.04,-2.94 2.88,-3.11 2.72,-3.11 2.56,-3.27 c -0.16,0 -0.32,0 -0.48,0 H 0.96 V 0 Z m 0.96,-4.09 h 2.08 c 0.32,0 0.81,0 0.97,-0.16 0.32,0 0.48,-0.16 0.64,-0.49 C 4.81,-4.9 4.81,-5.07 4.81,-5.39 4.81,-5.72 4.65,-6.05 4.49,-6.21 4.17,-6.37 3.85,-6.54 3.2,-6.54 H 0.96 Z"
       id="path36" />
    <path
       transform="scale(0.75)"
       stroke-width="0.961"
       stroke-linecap="butt"
       stroke-miterlimit="10"
       stroke-linejoin="miter"
       fill="none"
       stroke="#000000"
       d="m 671.55,67.18 h 16.98 11.54"
       id="path37" />
    <path
       transform="scale(0.75)"
       d="m 704.55,67.18 -5.92,2.94 1.44,-2.94 -1.44,-3.11 z"
       id="path38" />
    <path
       transform="scale(0.75)"
       stroke-width="0.961"
       stroke-linecap="butt"
       stroke-miterlimit="10"
       stroke-linejoin="miter"
       fill="none"
       stroke="#000000"
       d="m 704.55,67.18 -5.92,2.94 1.44,-2.94 -1.44,-3.11 z"
       id="path39" />
  </g>
  <path
     d="m 398.64,2.64 h 76.44 v 38.88 h -76.44 z"
     fill="#ffffff"
     id="path40"
     style="stroke-width:0.75" />
  <g
     clip-path="url(#clip_7)"
     id="g41"
     transform="translate(-28.56,-28.32)">
    <path
       transform="scale(0.75)"
       stroke-width="0.961"
       stroke-linecap="butt"
       stroke-miterlimit="4"
       stroke-linejoin="miter"
       fill="none"
       stroke="#000000"
       d="M 569.79,41.2 H 671.55 V 93.16 H 569.79 Z"
       id="path41" />
  </g>
  <g
     clip-path="url(#clip_8)"
     id="g48"
     transform="translate(-28.56,-28.32)">
    <path
       transform="matrix(0.75,0,0,0.75,435.9975,46.3425)"
       d="m 0,0 0.96,-0.17 c 0,0.49 0.16,0.66 0.32,0.98 C 1.44,0.98 1.6,1.3 1.92,1.3 2.25,1.47 2.73,1.63 3.05,1.63 3.53,1.63 3.85,1.47 4.01,1.47 4.33,1.3 4.65,1.14 4.65,0.98 4.81,0.81 4.97,0.49 4.97,0.32 4.97,0.16 4.81,-0.17 4.65,-0.33 4.65,-0.49 4.33,-0.66 4.01,-0.66 3.85,-0.82 3.37,-0.98 2.73,-1.15 2.08,-1.31 1.6,-1.47 1.28,-1.47 0.96,-1.8 0.8,-1.96 0.64,-2.29 0.48,-2.45 0.32,-2.78 0.32,-3.11 0.32,-3.6 0.48,-3.92 0.64,-4.25 0.8,-4.58 1.12,-4.74 1.6,-4.9 c 0.32,-0.17 0.81,-0.33 1.29,-0.33 0.48,0 0.96,0.16 1.44,0.33 0.48,0.16 0.64,0.32 0.96,0.81 0.16,0.33 0.32,0.66 0.32,1.15 H 4.65 c 0,-0.49 -0.16,-0.82 -0.48,-0.98 -0.32,-0.33 -0.64,-0.49 -1.28,-0.49 -0.48,0 -0.97,0.16 -1.29,0.32 -0.16,0.33 -0.32,0.49 -0.32,0.82 0,0.33 0,0.49 0.32,0.65 0.16,0.17 0.65,0.33 1.45,0.66 0.8,0.16 1.28,0.32 1.6,0.32 0.32,0.33 0.64,0.49 0.96,0.82 0.16,0.33 0.16,0.65 0.16,1.14 0,0.33 0,0.66 -0.32,0.98 C 5.29,1.79 4.97,1.96 4.49,2.12 4.17,2.45 3.69,2.45 3.21,2.45 2.57,2.45 1.92,2.45 1.44,2.12 1.12,1.96 0.64,1.63 0.48,1.3 0.16,0.98 0,0.49 0,0 Z"
       id="path42" />
    <path
       transform="matrix(0.75,0,0,0.75,441.285,49.649999)"
       d="m 0,0 v -7.52 h 0.8 v 0.82 c 0.16,-0.33 0.48,-0.49 0.64,-0.65 0.32,-0.17 0.49,-0.17 0.97,-0.17 0.32,0 0.8,0 1.12,0.33 0.32,0.16 0.64,0.49 0.8,0.98 0.16,0.49 0.16,0.98 0.16,1.47 0,0.49 0,0.98 -0.16,1.47 -0.32,0.49 -0.48,0.82 -0.96,0.98 -0.32,0.16 -0.64,0.33 -1.12,0.33 -0.32,0 -0.49,0 -0.81,-0.17 C 1.28,-2.29 0.96,-2.45 0.8,-2.62 V 0 Z m 0.8,-4.74 c 0,0.65 0.16,1.14 0.48,1.63 0.16,0.33 0.48,0.49 0.97,0.49 0.32,0 0.64,-0.16 0.96,-0.65 C 3.53,-3.6 3.69,-4.09 3.69,-4.74 3.69,-5.56 3.53,-6.05 3.21,-6.37 2.89,-6.7 2.57,-6.86 2.25,-6.86 1.93,-6.86 1.6,-6.7 1.28,-6.37 0.96,-5.88 0.8,-5.39 0.8,-4.74 Z"
       id="path43" />
    <path
       transform="matrix(0.75,0,0,0.75,448.26,46.829999)"
       d="M 0,0 0.96,0.16 C 0.8,0.65 0.48,1.14 0,1.31 -0.32,1.63 -0.81,1.8 -1.45,1.8 -2.25,1.8 -2.89,1.63 -3.21,1.14 -3.69,0.65 -4.01,0 -4.01,-0.98 c 0,-0.82 0.32,-1.63 0.8,-2.12 0.32,-0.49 0.96,-0.66 1.76,-0.66 0.64,0 1.29,0.17 1.77,0.66 0.32,0.49 0.64,1.14 0.64,2.12 v 0.16 h -4.01 c 0,0.66 0.16,1.15 0.48,1.47 0.32,0.33 0.64,0.49 1.12,0.49 0.32,0 0.64,-0.16 0.81,-0.32 C -0.32,0.65 -0.16,0.33 0,0 Z M -3.05,-1.47 H 0 c 0,-0.49 -0.16,-0.82 -0.32,-0.98 -0.32,-0.49 -0.65,-0.65 -1.13,-0.65 -0.48,0 -0.8,0.16 -1.12,0.49 -0.16,0.32 -0.32,0.65 -0.48,1.14 z"
       id="path44" />
    <path
       transform="matrix(0.75,0,0,0.75,452.34,46.5825)"
       d="m 0,0 0.81,0.17 c 0,0.65 -0.33,1.14 -0.65,1.47 -0.48,0.32 -0.96,0.49 -1.44,0.49 -0.8,0 -1.28,-0.17 -1.76,-0.66 -0.48,-0.49 -0.64,-1.14 -0.64,-2.12 0,-0.49 0,-1.14 0.32,-1.47 0.16,-0.49 0.48,-0.82 0.8,-0.98 0.32,-0.33 0.8,-0.33 1.28,-0.33 0.48,0 0.96,0.17 1.44,0.33 0.32,0.33 0.49,0.82 0.65,1.31 L 0,-1.63 c -0.16,-0.33 -0.32,-0.65 -0.48,-0.82 -0.32,-0.16 -0.48,-0.32 -0.8,-0.32 -0.48,0 -0.8,0.16 -1.12,0.49 -0.32,0.32 -0.32,0.98 -0.32,1.63 0,0.65 0,1.31 0.32,1.63 0.32,0.33 0.64,0.49 1.12,0.49 0.32,0 0.64,-0.16 0.8,-0.32 C -0.16,0.82 0,0.49 0,0 Z"
       id="path45" />
    <path
       transform="matrix(0.75,0,0,0.75,454.98753,47.445)"
       d="M 0,0 0.16,0.81 C 0,0.98 -0.32,0.98 -0.48,0.98 c -0.32,0 -0.64,0 -0.8,-0.17 C -1.44,0.65 -1.6,0.49 -1.6,0.32 c 0,-0.16 -0.16,-0.49 -0.16,-0.98 v -3.1 H -2.4 v -0.82 h 0.64 v -1.3 l 0.96,-0.49 v 1.79 H 0 v 0.82 h -0.8 v 3.1 c 0,0.33 0,0.49 0,0.49 0,0.17 0.16,0.17 0.16,0.17 0.16,0.16 0.16,0.16 0.32,0.16 0.16,0 0.16,0 0.32,-0.16 z"
       id="path46" />
    <path
       transform="matrix(0.75,0,0,0.75,455.7075,48.052499)"
       d="m 0,0 v -5.39 h 0.8 v 0.82 c 0.16,-0.33 0.32,-0.49 0.48,-0.65 0.16,-0.17 0.48,-0.17 0.64,-0.17 0.32,0 0.64,0 0.96,0.33 L 2.56,-4.24 C 2.24,-4.41 2.08,-4.41 1.92,-4.41 c -0.32,0 -0.48,0 -0.64,0.17 -0.16,0 -0.16,0.16 -0.32,0.49 0,0.32 -0.16,0.65 -0.16,0.98 V 0 Z"
       id="path47" />
    <path
       transform="matrix(0.75,0,0,0.75,460.755,47.565)"
       d="m 0,0 c -0.32,0.33 -0.64,0.49 -0.8,0.65 -0.32,0.17 -0.64,0.17 -1.12,0.17 -0.48,0 -0.96,-0.17 -1.28,-0.33 -0.32,-0.33 -0.48,-0.82 -0.48,-1.14 0,-0.33 0,-0.49 0.16,-0.82 0.16,-0.16 0.32,-0.33 0.48,-0.49 0.16,-0.16 0.48,-0.16 0.64,-0.33 0.16,0 0.48,0 0.8,-0.16 0.8,0 1.28,-0.16 1.6,-0.16 0,-0.17 0,-0.33 0,-0.33 0,-0.33 0,-0.65 -0.32,-0.82 -0.16,-0.16 -0.48,-0.32 -0.96,-0.32 -0.32,0 -0.64,0.16 -0.96,0.32 -0.16,0.17 -0.32,0.33 -0.32,0.82 L -3.52,-3.1 c 0.16,-0.33 0.16,-0.66 0.48,-0.98 0.16,-0.17 0.32,-0.33 0.64,-0.49 0.48,-0.17 0.8,-0.17 1.28,-0.17 0.48,0 0.8,0 1.12,0.17 0.32,0 0.48,0.16 0.64,0.32 0,0.17 0.16,0.33 0.16,0.66 0.16,0.16 0.16,0.49 0.16,0.81 v 1.31 c 0,0.82 0,1.31 0,1.47 0,0.33 0.16,0.49 0.16,0.65 H 0.32 C 0.16,0.49 0.16,0.33 0,0 Z m 0,-1.96 c -0.32,0.16 -0.8,0.16 -1.44,0.33 -0.32,0 -0.64,0.16 -0.8,0.16 -0.16,0.16 -0.32,0.16 -0.32,0.33 -0.16,0.16 -0.16,0.32 -0.16,0.49 0,0.16 0.16,0.32 0.32,0.49 0.16,0.16 0.48,0.32 0.8,0.32 0.32,0 0.64,-0.16 0.8,-0.32 0.32,-0.17 0.48,-0.33 0.64,-0.49 C 0,-0.98 0,-1.31 0,-1.63 Z"
       id="path48" />
  </g>
  <path
     d="m 433.92,14.28 h 0.72 v 5.64 h -0.72 z"
     id="path49"
     style="stroke-width:0.75" />
  <g
     clip-path="url(#clip_9)"
     id="g67"
     transform="translate(-28.56,-28.32)">
    <path
       transform="matrix(0.75,0,0,0.75,466.0425,46.949998)"
       d="M 0,0 0.8,-0.16 C 0.96,0.17 0.96,0.49 1.28,0.66 1.44,0.82 1.76,0.98 2.24,0.98 2.56,0.98 2.89,0.82 3.21,0.66 3.37,0.49 3.37,0.33 3.37,0 c 0,-0.16 0,-0.32 -0.16,-0.49 -0.16,0 -0.48,-0.16 -0.97,-0.32 C 1.6,-0.98 1.12,-0.98 0.96,-1.14 0.64,-1.3 0.48,-1.47 0.32,-1.63 0.16,-1.96 0.16,-2.12 0.16,-2.45 c 0,-0.16 0,-0.49 0.16,-0.65 0,-0.16 0.16,-0.33 0.32,-0.49 0.16,-0.16 0.32,-0.16 0.64,-0.33 0.16,0 0.48,0 0.8,0 0.32,0 0.81,0 1.13,0.17 0.32,0.16 0.48,0.32 0.64,0.49 0.16,0.16 0.32,0.49 0.32,0.81 L 3.21,-2.28 C 3.21,-2.61 3.05,-2.77 2.89,-2.94 2.73,-3.1 2.4,-3.26 2.08,-3.26 c -0.32,0 -0.64,0.16 -0.8,0.32 -0.16,0 -0.32,0.17 -0.32,0.49 0,0 0,0.17 0.16,0.33 0,0 0.16,0.16 0.32,0.16 0,0 0.32,0.17 0.8,0.17 0.65,0.16 1.13,0.32 1.29,0.49 0.32,0.16 0.48,0.32 0.64,0.49 0.16,0.16 0.16,0.49 0.16,0.81 0,0.33 0,0.49 -0.32,0.82 C 3.85,1.15 3.69,1.31 3.37,1.47 3.05,1.64 2.56,1.64 2.24,1.64 1.6,1.64 0.96,1.47 0.64,1.15 0.32,0.98 0,0.49 0,0 Z"
       id="path50" />
    <path
       transform="matrix(0.75,0,0,0.75,472.65003,49.649999)"
       d="m 0,0 v -2.62 c -0.16,0.17 -0.32,0.33 -0.64,0.49 -0.16,0.17 -0.48,0.17 -0.8,0.17 -0.64,0 -1.12,-0.17 -1.6,-0.82 -0.48,-0.49 -0.64,-1.14 -0.64,-1.96 0,-0.65 0,-1.14 0.32,-1.47 0.16,-0.49 0.32,-0.82 0.8,-0.98 0.32,-0.33 0.64,-0.33 1.12,-0.33 0.64,0 1.12,0.17 1.44,0.82 V -7.52 H 0.81 V 0 Z m -2.72,-4.74 c 0,0.65 0,1.14 0.32,1.47 0.32,0.49 0.64,0.65 1.12,0.65 0.32,0 0.64,-0.16 0.96,-0.49 C -0.16,-3.43 0,-4.09 0,-4.74 0,-5.39 -0.16,-5.88 -0.32,-6.37 -0.64,-6.7 -0.96,-6.86 -1.44,-6.86 c -0.32,0 -0.64,0.16 -0.96,0.49 -0.32,0.32 -0.32,0.81 -0.32,1.63 z"
       id="path51" />
    <path
       transform="matrix(0.75,0,0,0.75,476.97749,48.052499)"
       d="m 0,0 v -0.65 c -0.48,0.49 -0.96,0.82 -1.76,0.82 -0.32,0 -0.64,0 -0.8,-0.17 -0.32,-0.16 -0.48,-0.32 -0.64,-0.49 -0.16,-0.16 -0.16,-0.32 -0.32,-0.65 0,-0.16 0,-0.49 0,-0.82 v -3.43 h 0.96 v 3.11 c 0,0.49 0,0.81 0,0.98 0,0.16 0.16,0.32 0.32,0.49 0.16,0.16 0.48,0.16 0.64,0.16 0.32,0 0.64,0 0.8,-0.16 0.16,-0.17 0.48,-0.33 0.48,-0.49 0.16,-0.33 0.16,-0.66 0.16,-1.15 V -5.39 H 0.8 V 0 Z"
       id="path52" />
    <path
       transform="matrix(0.75,0,0,0.75,481.305,46.829999)"
       d="M 0,0 0.96,0.16 C 0.8,0.65 0.48,1.14 0.16,1.31 -0.32,1.63 -0.8,1.8 -1.44,1.8 -2.24,1.8 -2.72,1.63 -3.2,1.14 -3.68,0.65 -3.84,0 -3.84,-0.98 c 0,-0.82 0.16,-1.63 0.64,-2.12 0.48,-0.49 0.96,-0.66 1.76,-0.66 0.64,0 1.28,0.17 1.76,0.66 0.32,0.49 0.64,1.14 0.64,2.12 v 0.16 h -4 c 0,0.66 0.32,1.15 0.48,1.47 0.32,0.33 0.64,0.49 1.12,0.49 0.32,0 0.64,-0.16 0.8,-0.32 C -0.32,0.65 -0.16,0.33 0,0 Z M -2.88,-1.47 H 0 c 0,-0.49 -0.16,-0.82 -0.32,-0.98 -0.32,-0.49 -0.64,-0.65 -1.12,-0.65 -0.48,0 -0.8,0.16 -1.12,0.49 -0.16,0.32 -0.32,0.65 -0.32,1.14 z"
       id="path53" />
    <path
       transform="matrix(0.75,0,0,0.75,482.865,48.052499)"
       d="m 0,0 v -5.39 h 0.81 v 0.82 c 0.32,-0.49 0.96,-0.82 1.6,-0.82 0.32,0 0.64,0 0.96,0.17 0.16,0.16 0.48,0.16 0.48,0.49 0.16,0.16 0.32,0.32 0.32,0.65 0,0.16 0,0.49 0,0.82 V 0 h -0.8 v -3.26 c 0,-0.33 0,-0.66 -0.16,-0.82 0,-0.16 -0.16,-0.33 -0.32,-0.33 -0.16,-0.16 -0.48,-0.16 -0.64,-0.16 -0.32,0 -0.64,0 -0.96,0.33 -0.32,0.16 -0.48,0.65 -0.48,1.3 V 0 Z"
       id="path54" />
    <path
       transform="matrix(0.75,0,0,0.75,489.59999,46.5825)"
       d="M 0,0 0.96,0.17 C 0.8,0.82 0.64,1.31 0.16,1.64 c -0.32,0.32 -0.8,0.49 -1.44,0.49 -0.65,0 -1.29,-0.17 -1.77,-0.66 -0.32,-0.49 -0.64,-1.14 -0.64,-2.12 0,-0.49 0.16,-1.14 0.32,-1.47 0.16,-0.49 0.48,-0.82 0.8,-0.98 0.48,-0.33 0.81,-0.33 1.29,-0.33 0.64,0 1.12,0.17 1.44,0.33 0.32,0.33 0.64,0.82 0.64,1.31 L 0,-1.63 c -0.16,-0.33 -0.16,-0.65 -0.48,-0.82 -0.16,-0.16 -0.48,-0.32 -0.64,-0.32 -0.48,0 -0.97,0.16 -1.13,0.49 -0.32,0.32 -0.48,0.98 -0.48,1.63 0,0.65 0.16,1.31 0.48,1.63 0.16,0.33 0.49,0.49 0.97,0.49 0.32,0 0.64,-0.16 0.96,-0.32 C -0.16,0.82 0,0.49 0,0 Z"
       id="path55" />
    <path
       transform="matrix(0.75,0,0,0.75,493.5675,46.829999)"
       d="M 0,0 0.96,0.16 C 0.8,0.65 0.48,1.14 0.16,1.31 -0.16,1.63 -0.81,1.8 -1.29,1.8 -2.09,1.8 -2.73,1.63 -3.21,1.14 -3.69,0.65 -3.85,0 -3.85,-0.98 c 0,-0.82 0.16,-1.63 0.64,-2.12 0.48,-0.49 1.12,-0.66 1.76,-0.66 0.8,0 1.29,0.17 1.77,0.66 0.48,0.49 0.64,1.14 0.64,2.12 v 0.16 h -3.85 c 0,0.66 0.16,1.15 0.48,1.47 0.32,0.33 0.64,0.49 1.12,0.49 0.32,0 0.48,-0.16 0.8,-0.32 C -0.32,0.65 -0.16,0.33 0,0 Z M -2.89,-1.47 H 0 c 0,-0.49 -0.16,-0.82 -0.32,-0.98 -0.33,-0.49 -0.65,-0.65 -1.13,-0.65 -0.32,0 -0.64,0.16 -0.96,0.49 -0.32,0.32 -0.48,0.65 -0.48,1.14 z"
       id="path56" />
    <path
       transform="matrix(0.75,0,0,0.75,445.2525,57.2475)"
       d="m 0,0 0.16,0.81 c -0.16,0 -0.48,0 -0.64,0 -0.32,0 -0.64,0 -0.8,-0.16 -0.16,0 -0.32,-0.16 -0.32,-0.33 0,-0.16 -0.16,-0.49 -0.16,-1.14 v -3.1 H -2.4 v -0.66 h 0.64 v -1.3 l 0.96,-0.66 v 1.96 H 0 v 0.66 h -0.8 v 3.1 c 0,0.33 0,0.49 0,0.65 0,0 0.16,0 0.16,0.17 0.16,0 0.16,0 0.32,0 0.16,0 0.16,0 0.32,0 z"
       id="path57" />
    <path
       transform="matrix(0.75,0,0,0.75,445.9725,53.0775)"
       d="M 0,0 V -1.14 H 0.8 V 0 Z M 0,6.37 V 0.98 h 0.8 v 5.39 z"
       id="path58" />
    <path
       transform="matrix(0.75,0,0,0.75,447.6525,57.855)"
       d="m 0,0 v -5.39 h 0.81 v 0.66 c 0.16,-0.17 0.32,-0.33 0.64,-0.49 0.32,-0.17 0.64,-0.33 0.96,-0.33 0.32,0 0.64,0.16 0.96,0.33 0.16,0.16 0.48,0.32 0.48,0.65 0.48,-0.65 0.96,-0.98 1.6,-0.98 0.64,0 0.96,0.16 1.28,0.49 0.33,0.33 0.49,0.65 0.49,1.31 V 0 H 6.25 v -3.43 c 0,-0.32 0,-0.65 -0.16,-0.81 0,-0.17 -0.16,-0.33 -0.16,-0.33 -0.16,-0.16 -0.48,-0.16 -0.64,-0.16 -0.32,0 -0.64,0.16 -0.96,0.32 -0.16,0.33 -0.32,0.66 -0.32,1.31 V 0 h -0.8 v -3.59 c 0,-0.33 -0.16,-0.65 -0.32,-0.82 -0.16,-0.16 -0.32,-0.32 -0.64,-0.32 -0.32,0 -0.48,0 -0.8,0.16 -0.16,0.16 -0.32,0.33 -0.48,0.65 0,0.17 0,0.66 0,1.15 V 0 Z"
       id="path59" />
    <path
       transform="matrix(0.75,0,0,0.75,456.6675,56.512498)"
       d="M 0,0 0.96,0.16 C 0.8,0.65 0.64,1.14 0.16,1.47 -0.16,1.79 -0.64,1.96 -1.28,1.96 -2.08,1.96 -2.72,1.63 -3.2,1.14 -3.68,0.65 -3.84,0 -3.84,-0.82 c 0,-0.98 0.16,-1.63 0.64,-2.12 0.48,-0.49 1.12,-0.82 1.76,-0.82 0.8,0 1.28,0.33 1.76,0.82 0.48,0.49 0.64,1.14 0.64,1.96 0,0.16 0,0.16 0,0.32 h -3.84 c 0,0.49 0.16,0.98 0.48,1.31 0.32,0.33 0.64,0.49 1.12,0.49 0.32,0 0.64,-0.16 0.8,-0.33 C -0.32,0.65 0,0.49 0,0 Z M -2.88,-1.47 H 0 c 0,-0.49 0,-0.82 -0.32,-0.98 -0.16,-0.33 -0.64,-0.49 -1.12,-0.49 -0.32,0 -0.64,0.16 -0.96,0.32 -0.32,0.33 -0.48,0.66 -0.48,1.15 z"
       id="path60" />
    <path
       transform="matrix(0.75,0,0,0.75,460.395,57.855)"
       d="m 0,0 v -5.39 h 0.8 v 0.82 c 0.16,-0.33 0.32,-0.65 0.48,-0.82 0.16,0 0.48,-0.16 0.64,-0.16 0.32,0 0.64,0.16 0.96,0.33 L 2.56,-4.41 C 2.24,-4.57 2.08,-4.57 1.92,-4.57 c -0.32,0 -0.48,0 -0.64,0.16 -0.16,0.17 -0.16,0.33 -0.32,0.49 0,0.33 -0.16,0.66 -0.16,1.15 V 0 Z"
       id="path61" />
    <path
       transform="matrix(0.75,0,0,0.75,465.5625,56.512498)"
       d="M 0,0 0.96,0.16 C 0.8,0.65 0.64,1.14 0.16,1.47 -0.16,1.79 -0.64,1.96 -1.28,1.96 -2.08,1.96 -2.72,1.63 -3.2,1.14 -3.69,0.65 -3.85,0 -3.85,-0.82 c 0,-0.98 0.16,-1.63 0.65,-2.12 0.48,-0.49 1.12,-0.82 1.76,-0.82 0.8,0 1.28,0.33 1.76,0.82 0.48,0.49 0.64,1.14 0.64,1.96 0,0.16 0,0.16 0,0.32 h -3.84 c 0,0.49 0.16,0.98 0.48,1.31 0.32,0.33 0.64,0.49 1.12,0.49 0.32,0 0.64,-0.16 0.8,-0.33 C -0.32,0.65 0,0.49 0,0 Z M -2.88,-1.47 H 0.16 C 0,-1.96 0,-2.29 -0.32,-2.45 c -0.16,-0.33 -0.64,-0.49 -1.12,-0.49 -0.32,0 -0.64,0.16 -0.96,0.32 -0.32,0.33 -0.48,0.66 -0.48,1.15 z"
       id="path62" />
    <path
       transform="matrix(0.75,0,0,0.75,468.21003,57.855)"
       d="m 0,0 -1.93,-5.39 h 0.96 l 1.13,3.27 c 0.16,0.33 0.16,0.65 0.32,0.98 0,-0.33 0.16,-0.65 0.32,-0.98 L 1.92,-5.39 H 2.88 L 0.96,0 Z"
       id="path63" />
    <path
       transform="matrix(0.75,0,0,0.75,473.73753,56.512498)"
       d="M 0,0 0.8,0.16 C 0.64,0.65 0.48,1.14 0,1.47 -0.32,1.79 -0.8,1.96 -1.45,1.96 -2.25,1.96 -2.89,1.63 -3.37,1.14 -3.69,0.65 -4.01,0 -4.01,-0.82 c 0,-0.98 0.32,-1.63 0.64,-2.12 0.48,-0.49 1.12,-0.82 1.76,-0.82 0.81,0 1.29,0.33 1.77,0.82 0.48,0.49 0.64,1.14 0.64,1.96 0,0.16 0,0.16 0,0.32 h -3.85 c 0,0.49 0.16,0.98 0.48,1.31 0.32,0.33 0.64,0.49 1.12,0.49 0.32,0 0.65,-0.16 0.81,-0.33 C -0.32,0.65 -0.16,0.49 0,0 Z M -3.05,-1.47 H 0 c -0.16,-0.49 -0.16,-0.82 -0.48,-0.98 -0.16,-0.33 -0.65,-0.49 -0.97,-0.49 -0.48,0 -0.8,0.16 -1.12,0.32 -0.32,0.33 -0.48,0.66 -0.48,1.15 z"
       id="path64" />
    <path
       transform="matrix(0.75,0,0,0.75,475.1775,57.855)"
       d="m 0,0 v -5.39 h 0.8 v 0.82 c 0.32,-0.33 0.48,-0.65 0.64,-0.82 0.16,0 0.32,-0.16 0.48,-0.16 0.32,0 0.64,0.16 0.96,0.33 L 2.56,-4.41 C 2.4,-4.57 2.08,-4.57 1.92,-4.57 c -0.16,0 -0.32,0 -0.48,0.16 -0.16,0.17 -0.32,0.33 -0.32,0.49 -0.16,0.33 -0.16,0.66 -0.16,1.15 V 0 Z"
       id="path65" />
    <path
       transform="matrix(0.75,0,0,0.75,477.4575,56.6325)"
       d="m 0,0 0.97,-0.16 c 0,0.32 0.16,0.65 0.32,0.81 0.32,0.17 0.64,0.33 0.96,0.33 0.48,0 0.8,-0.16 0.96,-0.33 C 3.37,0.49 3.53,0.33 3.53,0.16 3.53,-0.16 3.37,-0.33 3.21,-0.33 3.05,-0.49 2.73,-0.49 2.25,-0.65 1.61,-0.82 1.29,-0.98 0.97,-1.14 0.64,-1.31 0.48,-1.47 0.32,-1.63 c 0,-0.17 -0.16,-0.49 -0.16,-0.66 0,-0.32 0,-0.49 0.16,-0.65 0.16,-0.33 0.32,-0.49 0.48,-0.65 0.17,0 0.33,-0.17 0.49,-0.17 0.32,-0.16 0.64,-0.16 0.8,-0.16 0.48,0 0.8,0.16 1.12,0.16 0.32,0.17 0.48,0.33 0.64,0.49 0.16,0.33 0.32,0.49 0.32,0.82 l -0.8,0.16 C 3.37,-2.61 3.21,-2.78 3.05,-2.94 2.89,-3.1 2.57,-3.1 2.25,-3.1 c -0.48,0 -0.8,0 -0.96,0.16 -0.16,0.16 -0.16,0.33 -0.16,0.49 0,0.16 0,0.16 0,0.33 0.16,0.16 0.16,0.16 0.32,0.16 0.16,0.16 0.48,0.16 0.8,0.33 0.64,0.16 1.12,0.32 1.44,0.32 0.16,0.17 0.32,0.33 0.48,0.49 C 4.33,-0.49 4.49,-0.33 4.49,0 4.49,0.33 4.33,0.65 4.17,0.82 4.01,1.14 3.69,1.31 3.37,1.47 3.05,1.63 2.73,1.8 2.25,1.8 1.61,1.8 1.13,1.63 0.64,1.31 0.32,0.98 0.16,0.49 0,0 Z"
       id="path66" />
    <path
       transform="matrix(0.75,0,0,0.75,484.1925,57.3675)"
       d="M 0,0 C -0.32,0.33 -0.64,0.49 -0.96,0.49 -1.28,0.65 -1.61,0.82 -1.93,0.82 -2.57,0.82 -3.05,0.65 -3.37,0.33 -3.69,0 -3.85,-0.33 -3.85,-0.82 c 0,-0.16 0.16,-0.49 0.16,-0.65 0.16,-0.33 0.32,-0.49 0.48,-0.65 0.16,0 0.48,-0.17 0.64,-0.17 0.16,-0.16 0.48,-0.16 0.8,-0.16 0.81,-0.16 1.29,-0.16 1.61,-0.33 0,-0.16 0,-0.16 0,-0.32 0,-0.33 0,-0.49 -0.16,-0.66 -0.32,-0.32 -0.64,-0.32 -1.13,-0.32 -0.32,0 -0.64,0 -0.96,0.16 -0.16,0.16 -0.32,0.49 -0.32,0.82 l -0.96,-0.17 c 0.16,-0.32 0.32,-0.65 0.48,-0.81 0.16,-0.33 0.32,-0.49 0.8,-0.66 0.32,0 0.64,-0.16 1.13,-0.16 0.48,0 0.8,0 1.12,0.16 0.32,0.17 0.48,0.33 0.64,0.49 0.16,0.17 0.16,0.33 0.32,0.49 0,0.17 0,0.49 0,0.98 v 1.15 c 0,0.81 0,1.3 0,1.63 0,0.16 0.16,0.49 0.32,0.65 H 0.16 C 0,0.49 0,0.16 0,0 Z m -0.16,-2.12 c -0.32,0.16 -0.8,0.32 -1.45,0.32 -0.32,0.17 -0.64,0.17 -0.8,0.33 -0.16,0 -0.16,0.16 -0.32,0.16 0,0.17 -0.16,0.33 -0.16,0.49 0,0.17 0.16,0.49 0.32,0.66 C -2.41,0 -2.09,0 -1.77,0 c 0.32,0 0.65,0 0.97,-0.16 0.16,-0.17 0.48,-0.33 0.48,-0.66 0.16,-0.16 0.16,-0.49 0.16,-0.98 z"
       id="path67" />
  </g>
  <path
     d="m 457.2,23.88 h 0.72 v 5.64 h -0.72 z"
     id="path68"
     style="stroke-width:0.75" />
  <g
     clip-path="url(#clip_10)"
     id="g71"
     transform="translate(-28.56,-28.32)">
    <path
       transform="scale(0.75)"
       stroke-width="0.961"
       stroke-linecap="butt"
       stroke-miterlimit="10"
       stroke-linejoin="miter"
       fill="none"
       stroke="#000000"
       d="M 367.09,67.18 H 412.6"
       id="path69" />
    <path
       transform="scale(0.75)"
       d="m 417.09,67.18 -5.93,2.94 1.44,-2.94 -1.44,-3.11 z"
       id="path70" />
    <path
       transform="scale(0.75)"
       stroke-width="0.961"
       stroke-linecap="butt"
       stroke-miterlimit="10"
       stroke-linejoin="miter"
       fill="none"
       stroke="#000000"
       d="m 417.09,67.18 -5.93,2.94 1.44,-2.94 -1.44,-3.11 z"
       id="path71" />
  </g>
  <path
     d="m 170.4,2.64 h 76.44 V 41.52 H 170.4 Z"
     fill="#ffffff"
     id="path72"
     style="stroke-width:0.75" />
  <g
     clip-path="url(#clip_11)"
     id="g73"
     transform="translate(-28.56,-28.32)">
    <path
       transform="scale(0.75)"
       stroke-width="0.961"
       stroke-linecap="butt"
       stroke-miterlimit="4"
       stroke-linejoin="miter"
       fill="none"
       stroke="#000000"
       d="M 265.34,41.2 H 367.09 V 93.16 H 265.34 Z"
       id="path73" />
  </g>
  <g
     clip-path="url(#clip_12)"
     id="g80"
     transform="translate(-28.56,-28.32)">
    <path
       transform="matrix(0.75,0,0,0.75,207.66,46.3425)"
       d="m 0,0 0.96,-0.17 c 0,0.49 0.16,0.66 0.32,0.98 C 1.44,0.98 1.76,1.3 2.08,1.3 2.4,1.47 2.72,1.63 3.21,1.63 3.53,1.63 3.85,1.47 4.17,1.47 4.33,1.3 4.65,1.14 4.81,0.98 4.81,0.81 4.97,0.49 4.97,0.32 4.97,0.16 4.81,-0.17 4.81,-0.33 4.65,-0.49 4.33,-0.66 4.17,-0.66 3.85,-0.82 3.53,-0.98 2.72,-1.15 2.08,-1.31 1.6,-1.47 1.44,-1.47 0.96,-1.8 0.8,-1.96 0.64,-2.29 0.48,-2.45 0.32,-2.78 0.32,-3.11 0.32,-3.6 0.48,-3.92 0.64,-4.25 0.8,-4.58 1.12,-4.74 1.6,-4.9 c 0.32,-0.17 0.8,-0.33 1.28,-0.33 0.65,0 1.13,0.16 1.45,0.33 0.48,0.16 0.8,0.32 0.96,0.81 0.16,0.33 0.32,0.66 0.32,1.15 H 4.81 C 4.65,-3.43 4.49,-3.76 4.17,-3.92 4.01,-4.25 3.53,-4.41 2.88,-4.41 c -0.48,0 -0.96,0.16 -1.12,0.32 -0.32,0.33 -0.48,0.49 -0.48,0.82 0,0.33 0.16,0.49 0.32,0.65 0.16,0.17 0.64,0.33 1.44,0.66 0.81,0.16 1.29,0.32 1.61,0.32 0.48,0.33 0.64,0.49 0.96,0.82 0.16,0.33 0.32,0.65 0.32,1.14 C 5.93,0.65 5.77,0.98 5.61,1.3 5.29,1.79 4.97,1.96 4.65,2.12 4.17,2.45 3.69,2.45 3.21,2.45 2.56,2.45 1.92,2.45 1.6,2.12 1.12,1.96 0.8,1.63 0.48,1.3 0.16,0.98 0.16,0.49 0,0 Z"
       id="path74" />
    <path
       transform="matrix(0.75,0,0,0.75,212.9475,49.649999)"
       d="m 0,0 v -7.52 h 0.8 v 0.82 c 0.16,-0.33 0.48,-0.49 0.64,-0.65 0.32,-0.17 0.64,-0.17 0.96,-0.17 0.49,0 0.81,0 1.13,0.33 0.32,0.16 0.64,0.49 0.8,0.98 0.16,0.49 0.32,0.98 0.32,1.47 0,0.49 -0.16,0.98 -0.32,1.47 -0.16,0.49 -0.48,0.82 -0.8,0.98 -0.48,0.16 -0.81,0.33 -1.29,0.33 -0.32,0 -0.48,0 -0.8,-0.17 C 1.28,-2.29 1.12,-2.45 0.96,-2.62 V 0 Z m 0.8,-4.74 c 0,0.65 0.16,1.14 0.48,1.63 0.16,0.33 0.64,0.49 0.96,0.49 0.32,0 0.81,-0.16 0.97,-0.65 C 3.53,-3.6 3.69,-4.09 3.69,-4.74 3.69,-5.56 3.53,-6.05 3.21,-6.37 3.05,-6.7 2.72,-6.86 2.24,-6.86 1.92,-6.86 1.6,-6.7 1.28,-6.37 0.96,-5.88 0.8,-5.39 0.8,-4.74 Z"
       id="path75" />
    <path
       transform="matrix(0.75,0,0,0.75,219.91501,46.829999)"
       d="M 0,0 0.97,0.16 C 0.81,0.65 0.49,1.14 0.16,1.31 -0.32,1.63 -0.8,1.8 -1.44,1.8 -2.24,1.8 -2.72,1.63 -3.2,1.14 -3.68,0.65 -3.84,0 -3.84,-0.98 c 0,-0.82 0.16,-1.63 0.64,-2.12 0.48,-0.49 0.96,-0.66 1.76,-0.66 0.64,0 1.28,0.17 1.77,0.66 0.48,0.49 0.64,1.14 0.64,2.12 v 0.16 h -4.01 c 0.16,0.66 0.32,1.15 0.48,1.47 0.32,0.33 0.8,0.49 1.12,0.49 0.32,0 0.64,-0.16 0.96,-0.32 C -0.32,0.65 -0.16,0.33 0,0 Z M -2.88,-1.47 H 0 c 0,-0.49 -0.16,-0.82 -0.32,-0.98 -0.32,-0.49 -0.64,-0.65 -1.12,-0.65 -0.48,0 -0.8,0.16 -0.96,0.49 -0.32,0.32 -0.48,0.65 -0.48,1.14 z"
       id="path76" />
    <path
       transform="matrix(0.75,0,0,0.75,224.0025,46.5825)"
       d="M 0,0 0.96,0.17 C 0.8,0.82 0.64,1.31 0.16,1.64 c -0.32,0.32 -0.8,0.49 -1.44,0.49 -0.8,0 -1.28,-0.17 -1.76,-0.66 -0.48,-0.49 -0.64,-1.14 -0.64,-2.12 0,-0.49 0.16,-1.14 0.32,-1.47 0.16,-0.49 0.48,-0.82 0.8,-0.98 0.48,-0.33 0.8,-0.33 1.28,-0.33 0.64,0 1.12,0.17 1.44,0.33 0.32,0.33 0.64,0.82 0.64,1.31 L 0,-1.63 c -0.16,-0.33 -0.32,-0.65 -0.48,-0.82 -0.16,-0.16 -0.48,-0.32 -0.8,-0.32 -0.48,0 -0.8,0.16 -1.12,0.49 -0.16,0.32 -0.32,0.98 -0.32,1.63 0,0.65 0.16,1.31 0.32,1.63 0.32,0.33 0.64,0.49 1.12,0.49 0.32,0 0.64,-0.16 0.8,-0.32 C -0.16,0.82 0,0.49 0,0 Z"
       id="path77" />
    <path
       transform="matrix(0.75,0,0,0.75,226.76999,47.445)"
       d="m 0,0 v 0.81 c -0.16,0.17 -0.48,0.17 -0.64,0.17 -0.32,0 -0.48,0 -0.64,-0.17 C -1.6,0.65 -1.6,0.49 -1.76,0.32 c 0,-0.16 -0.16,-0.49 -0.16,-0.98 v -3.1 h -0.65 v -0.82 h 0.65 v -1.3 l 0.96,-0.49 v 1.79 H 0 v 0.82 h -0.96 v 3.1 c 0,0.33 0,0.49 0,0.49 L -0.8,0 c 0.16,0.16 0.16,0.16 0.32,0.16 0.16,0 0.32,0 0.48,-0.16 z"
       id="path78" />
    <path
       transform="matrix(0.75,0,0,0.75,227.37,48.052499)"
       d="m 0,0 v -5.39 h 0.8 v 0.82 c 0.16,-0.33 0.32,-0.49 0.64,-0.65 0.16,-0.17 0.32,-0.17 0.48,-0.17 0.32,0 0.64,0 0.96,0.33 L 2.56,-4.24 C 2.4,-4.41 2.08,-4.41 1.92,-4.41 c -0.16,0 -0.32,0 -0.48,0.17 -0.16,0 -0.32,0.16 -0.32,0.49 -0.16,0.32 -0.16,0.65 -0.16,0.98 V 0 Z"
       id="path79" />
    <path
       transform="matrix(0.75,0,0,0.75,232.53749,47.565)"
       d="m 0,0 c -0.32,0.33 -0.64,0.49 -0.96,0.65 -0.32,0.17 -0.64,0.17 -0.96,0.17 -0.64,0 -1.12,-0.17 -1.45,-0.33 -0.32,-0.33 -0.48,-0.82 -0.48,-1.14 0,-0.33 0.16,-0.49 0.16,-0.82 0.16,-0.16 0.32,-0.33 0.48,-0.49 0.17,-0.16 0.49,-0.16 0.65,-0.33 0.16,0 0.48,0 0.8,-0.16 0.8,0 1.28,-0.16 1.6,-0.16 0,-0.17 0,-0.33 0,-0.33 0,-0.33 0,-0.65 -0.16,-0.82 -0.32,-0.16 -0.64,-0.32 -1.12,-0.32 -0.32,0 -0.64,0.16 -0.8,0.32 -0.32,0.17 -0.48,0.33 -0.48,0.82 L -3.69,-3.1 c 0.16,-0.33 0.32,-0.66 0.48,-0.98 0.17,-0.17 0.49,-0.33 0.81,-0.49 0.32,-0.17 0.64,-0.17 1.12,-0.17 0.48,0 0.8,0 1.12,0.17 0.32,0 0.48,0.16 0.64,0.32 0.16,0.17 0.16,0.33 0.32,0.66 0,0.16 0,0.49 0,0.81 v 1.31 c 0,0.82 0,1.31 0,1.47 0,0.33 0.16,0.49 0.32,0.65 H 0.16 C 0,0.49 0,0.33 0,0 Z m -0.16,-1.96 c -0.32,0.16 -0.8,0.16 -1.44,0.33 -0.32,0 -0.64,0.16 -0.8,0.16 -0.16,0.16 -0.16,0.16 -0.32,0.33 0,0.16 -0.16,0.32 -0.16,0.49 0,0.16 0.16,0.32 0.32,0.49 0.16,0.16 0.48,0.32 0.8,0.32 0.32,0 0.64,-0.16 0.96,-0.32 0.16,-0.17 0.48,-0.33 0.48,-0.49 0.16,-0.33 0.16,-0.66 0.16,-0.98 z"
       id="path80" />
  </g>
  <path
     d="m 205.56,14.28 h 0.72 v 5.64 h -0.72 z"
     id="path81"
     style="stroke-width:0.75" />
  <g
     clip-path="url(#clip_13)"
     id="g99"
     transform="translate(-28.56,-28.32)">
    <path
       transform="matrix(0.75,0,0,0.75,237.705,46.949998)"
       d="M 0,0 0.8,-0.16 C 0.96,0.17 1.12,0.49 1.28,0.66 1.44,0.82 1.76,0.98 2.24,0.98 2.72,0.98 2.88,0.82 3.2,0.66 3.36,0.49 3.53,0.33 3.53,0 3.53,-0.16 3.36,-0.32 3.2,-0.49 3.04,-0.49 2.72,-0.65 2.24,-0.81 1.6,-0.98 1.12,-0.98 0.96,-1.14 0.64,-1.3 0.48,-1.47 0.32,-1.63 0.16,-1.96 0.16,-2.12 0.16,-2.45 c 0,-0.16 0,-0.49 0.16,-0.65 0.16,-0.16 0.16,-0.33 0.48,-0.49 0.16,-0.16 0.32,-0.16 0.48,-0.33 0.32,0 0.48,0 0.8,0 0.48,0 0.8,0 1.12,0.17 0.33,0.16 0.49,0.32 0.65,0.49 0.16,0.16 0.32,0.49 0.32,0.81 L 3.36,-2.28 C 3.2,-2.61 3.2,-2.77 2.88,-2.94 2.72,-3.1 2.56,-3.26 2.08,-3.26 c -0.32,0 -0.64,0.16 -0.8,0.32 -0.16,0 -0.32,0.17 -0.32,0.49 0,0 0.16,0.17 0.16,0.33 0,0 0.16,0.16 0.32,0.16 0.16,0 0.32,0.17 0.8,0.17 0.64,0.16 1.12,0.32 1.29,0.49 0.32,0.16 0.48,0.32 0.64,0.49 0.16,0.16 0.16,0.49 0.16,0.81 0,0.33 0,0.49 -0.16,0.82 C 4.01,1.15 3.69,1.31 3.36,1.47 3.04,1.64 2.72,1.64 2.24,1.64 1.6,1.64 1.12,1.47 0.64,1.15 0.32,0.98 0.16,0.49 0,0 Z"
       id="path82" />
    <path
       transform="matrix(0.75,0,0,0.75,244.3125,49.649999)"
       d="m 0,0 v -2.62 c -0.16,0.17 -0.32,0.33 -0.64,0.49 -0.16,0.17 -0.48,0.17 -0.8,0.17 -0.64,0 -1.12,-0.17 -1.6,-0.82 -0.48,-0.49 -0.64,-1.14 -0.64,-1.96 0,-0.65 0.16,-1.14 0.32,-1.47 0.16,-0.49 0.48,-0.82 0.8,-0.98 0.32,-0.33 0.64,-0.33 1.12,-0.33 0.64,0 1.12,0.17 1.6,0.82 v -0.82 h 0.8 V 0 Z m -2.72,-4.74 c 0,0.65 0.16,1.14 0.32,1.47 0.32,0.49 0.64,0.65 1.12,0.65 0.32,0 0.64,-0.16 0.96,-0.49 C 0,-3.43 0.16,-4.09 0.16,-4.74 0.16,-5.39 0,-5.88 -0.32,-6.37 -0.64,-6.7 -0.96,-6.86 -1.44,-6.86 c -0.32,0 -0.64,0.16 -0.96,0.49 -0.16,0.32 -0.32,0.81 -0.32,1.63 z"
       id="path83" />
    <path
       transform="matrix(0.75,0,0,0.75,248.63999,48.052499)"
       d="m 0,0 v -0.65 c -0.48,0.49 -0.96,0.82 -1.76,0.82 -0.32,0 -0.48,0 -0.8,-0.17 -0.32,-0.16 -0.48,-0.32 -0.64,-0.49 -0.16,-0.16 -0.16,-0.32 -0.32,-0.65 0,-0.16 0,-0.49 0,-0.82 v -3.43 h 0.96 v 3.11 c 0,0.49 0,0.81 0,0.98 0,0.16 0.16,0.32 0.32,0.49 0.16,0.16 0.48,0.16 0.8,0.16 0.16,0 0.48,0 0.64,-0.16 0.32,-0.17 0.48,-0.33 0.48,-0.49 0.16,-0.33 0.16,-0.66 0.16,-1.15 V -5.39 H 0.8 V 0 Z"
       id="path84" />
    <path
       transform="matrix(0.75,0,0,0.75,252.9675,46.829999)"
       d="M 0,0 0.96,0.16 C 0.8,0.65 0.48,1.14 0.16,1.31 -0.32,1.63 -0.8,1.8 -1.44,1.8 -2.08,1.8 -2.72,1.63 -3.2,1.14 -3.69,0.65 -3.85,0 -3.85,-0.98 c 0,-0.82 0.16,-1.63 0.65,-2.12 0.48,-0.49 1.12,-0.66 1.76,-0.66 0.64,0 1.28,0.17 1.76,0.66 0.48,0.49 0.64,1.14 0.64,2.12 v 0.16 h -4 c 0.16,0.66 0.32,1.15 0.64,1.47 0.16,0.33 0.64,0.49 0.96,0.49 0.32,0 0.64,-0.16 0.96,-0.32 C -0.32,0.65 -0.16,0.33 0,0 Z M -2.88,-1.47 H 0 c 0,-0.49 -0.16,-0.82 -0.32,-0.98 -0.32,-0.49 -0.64,-0.65 -1.12,-0.65 -0.32,0 -0.8,0.16 -0.96,0.49 -0.32,0.32 -0.48,0.65 -0.48,1.14 z"
       id="path85" />
    <path
       transform="matrix(0.75,0,0,0.75,254.5275,48.052499)"
       d="m 0,0 v -5.39 h 0.8 v 0.82 c 0.32,-0.49 0.97,-0.82 1.61,-0.82 0.32,0 0.64,0 0.96,0.17 0.32,0.16 0.48,0.16 0.64,0.49 0,0.16 0.16,0.32 0.16,0.65 0.16,0.16 0.16,0.49 0.16,0.82 V 0 H 3.37 v -3.26 c 0,-0.33 0,-0.66 -0.16,-0.82 0,-0.16 -0.16,-0.33 -0.32,-0.33 -0.16,-0.16 -0.32,-0.16 -0.64,-0.16 -0.32,0 -0.64,0 -0.97,0.33 -0.32,0.16 -0.48,0.65 -0.48,1.3 V 0 Z"
       id="path86" />
    <path
       transform="matrix(0.75,0,0,0.75,261.3825,46.5825)"
       d="m 0,0 0.8,0.17 c 0,0.65 -0.32,1.14 -0.64,1.47 -0.48,0.32 -0.96,0.49 -1.61,0.49 -0.64,0 -1.28,-0.17 -1.6,-0.66 -0.48,-0.49 -0.8,-1.14 -0.8,-2.12 0,-0.49 0.16,-1.14 0.32,-1.47 0.16,-0.49 0.48,-0.82 0.96,-0.98 0.32,-0.33 0.8,-0.33 1.12,-0.33 0.65,0 1.13,0.17 1.45,0.33 0.48,0.33 0.64,0.82 0.8,1.31 l -0.96,0.16 c 0,-0.33 -0.16,-0.65 -0.48,-0.82 -0.16,-0.16 -0.32,-0.32 -0.65,-0.32 -0.48,0 -0.8,0.16 -1.12,0.49 -0.32,0.32 -0.48,0.98 -0.48,1.63 0,0.65 0.16,1.31 0.48,1.63 0.16,0.33 0.64,0.49 0.96,0.49 0.49,0 0.65,-0.16 0.97,-0.32 C -0.32,0.82 -0.16,0.49 0,0 Z"
       id="path87" />
    <path
       transform="matrix(0.75,0,0,0.75,265.2225,46.829999)"
       d="M 0,0 0.97,0.16 C 0.81,0.65 0.65,1.14 0.16,1.31 -0.16,1.63 -0.64,1.8 -1.28,1.8 -2.08,1.8 -2.72,1.63 -3.2,1.14 -3.68,0.65 -3.84,0 -3.84,-0.98 c 0,-0.82 0.32,-1.63 0.64,-2.12 0.48,-0.49 1.12,-0.66 1.76,-0.66 0.8,0 1.28,0.17 1.76,0.66 0.49,0.49 0.65,1.14 0.65,2.12 v 0.16 h -3.85 c 0,0.66 0.16,1.15 0.48,1.47 0.32,0.33 0.64,0.49 1.12,0.49 0.32,0 0.64,-0.16 0.8,-0.32 C -0.32,0.65 0,0.33 0,0 Z M -2.88,-1.47 H 0.16 C 0,-1.96 0,-2.29 -0.32,-2.45 -0.48,-2.94 -0.96,-3.1 -1.28,-3.1 c -0.48,0 -0.8,0.16 -1.12,0.49 -0.32,0.32 -0.48,0.65 -0.48,1.14 z"
       id="path88" />
    <path
       transform="matrix(0.75,0,0,0.75,217.035,57.2475)"
       d="m 0,0 v 0.81 c -0.16,0 -0.48,0 -0.64,0 -0.32,0 -0.48,0 -0.64,-0.16 -0.32,0 -0.32,-0.16 -0.48,-0.33 0,-0.16 0,-0.49 0,-1.14 v -3.1 h -0.8 v -0.66 h 0.8 v -1.3 l 0.8,-0.66 v 1.96 H 0 v 0.66 h -0.96 v 3.1 c 0,0.33 0,0.49 0,0.65 0.16,0 0.16,0 0.16,0.17 0.16,0 0.16,0 0.32,0 0.16,0 0.32,0 0.48,0 z"
       id="path89" />
    <path
       transform="matrix(0.75,0,0,0.75,217.635,53.0775)"
       d="M 0,0 V -1.14 H 0.96 V 0 Z M 0,6.37 V 0.98 h 0.96 v 5.39 z"
       id="path90" />
    <path
       transform="matrix(0.75,0,0,0.75,219.315,57.855)"
       d="m 0,0 v -5.39 h 0.8 v 0.66 c 0.16,-0.17 0.49,-0.33 0.65,-0.49 0.32,-0.17 0.64,-0.33 0.96,-0.33 0.48,0 0.8,0.16 0.96,0.33 0.32,0.16 0.48,0.32 0.48,0.65 0.48,-0.65 0.96,-0.98 1.76,-0.98 0.48,0 0.8,0.16 1.12,0.49 0.32,0.33 0.48,0.65 0.48,1.31 V 0 H 6.25 v -3.43 c 0,-0.32 0,-0.65 0,-0.81 C 6.09,-4.41 6.09,-4.57 5.93,-4.57 5.77,-4.73 5.61,-4.73 5.29,-4.73 c -0.32,0 -0.64,0.16 -0.8,0.32 -0.32,0.33 -0.48,0.66 -0.48,1.31 V 0 h -0.8 v -3.59 c 0,-0.33 -0.16,-0.65 -0.32,-0.82 -0.16,-0.16 -0.32,-0.32 -0.64,-0.32 -0.32,0 -0.48,0 -0.64,0.16 -0.32,0.16 -0.48,0.33 -0.48,0.65 -0.17,0.17 -0.17,0.66 -0.17,1.15 V 0 Z"
       id="path91" />
    <path
       transform="matrix(0.75,0,0,0.75,228.45001,56.512498)"
       d="M 0,0 0.8,0.16 C 0.64,0.65 0.48,1.14 0,1.47 -0.32,1.79 -0.8,1.96 -1.44,1.96 -2.24,1.96 -2.88,1.63 -3.36,1.14 -3.68,0.65 -4,0 -4,-0.82 c 0,-0.98 0.32,-1.63 0.64,-2.12 0.48,-0.49 1.12,-0.82 1.92,-0.82 0.64,0 1.28,0.33 1.6,0.82 0.48,0.49 0.8,1.14 0.8,1.96 0,0.16 0,0.16 0,0.32 h -4 c 0,0.49 0.16,0.98 0.48,1.31 0.32,0.33 0.64,0.49 1.12,0.49 0.32,0 0.64,-0.16 0.8,-0.33 C -0.32,0.65 -0.16,0.49 0,0 Z M -3.04,-1.47 H 0 c -0.16,-0.49 -0.16,-0.82 -0.32,-0.98 -0.32,-0.33 -0.8,-0.49 -1.12,-0.49 -0.48,0 -0.8,0.16 -1.12,0.32 -0.32,0.33 -0.48,0.66 -0.48,1.15 z"
       id="path92" />
    <path
       transform="matrix(0.75,0,0,0.75,232.0575,57.855)"
       d="m 0,0 v -5.39 h 0.8 v 0.82 c 0.16,-0.33 0.32,-0.65 0.48,-0.82 0.32,0 0.48,-0.16 0.64,-0.16 0.32,0 0.64,0.16 0.96,0.33 L 2.56,-4.41 C 2.4,-4.57 2.08,-4.57 1.92,-4.57 c -0.16,0 -0.48,0 -0.64,0.16 0,0.17 -0.16,0.33 -0.32,0.49 0,0.33 -0.16,0.66 -0.16,1.15 V 0 Z"
       id="path93" />
    <path
       transform="matrix(0.75,0,0,0.75,237.345,56.512498)"
       d="M 0,0 0.8,0.16 C 0.8,0.65 0.48,1.14 0,1.47 -0.32,1.79 -0.8,1.96 -1.44,1.96 -2.24,1.96 -2.89,1.63 -3.37,1.14 -3.69,0.65 -4.01,0 -4.01,-0.82 c 0,-0.98 0.32,-1.63 0.8,-2.12 0.32,-0.49 0.97,-0.82 1.77,-0.82 0.64,0 1.28,0.33 1.6,0.82 0.48,0.49 0.8,1.14 0.8,1.96 0,0.16 0,0.16 0,0.32 h -4.01 c 0,0.49 0.16,0.98 0.49,1.31 0.32,0.33 0.64,0.49 1.12,0.49 0.32,0 0.64,-0.16 0.8,-0.33 C -0.32,0.65 -0.16,0.49 0,0 Z M -3.05,-1.47 H 0 c -0.16,-0.49 -0.16,-0.82 -0.32,-0.98 -0.32,-0.33 -0.64,-0.49 -1.12,-0.49 -0.48,0 -0.8,0.16 -1.12,0.32 -0.33,0.33 -0.33,0.66 -0.49,1.15 z"
       id="path94" />
    <path
       transform="matrix(0.75,0,0,0.75,239.98502,57.855)"
       d="m 0,0 -2.08,-5.39 h 0.96 L 0,-2.12 c 0.16,0.33 0.16,0.65 0.32,0.98 0.17,-0.33 0.17,-0.65 0.33,-0.98 l 1.28,-3.27 h 0.8 L 0.81,0 Z"
       id="path95" />
    <path
       transform="matrix(0.75,0,0,0.75,245.40001,56.512498)"
       d="M 0,0 0.8,0.16 C 0.8,0.65 0.48,1.14 0,1.47 -0.33,1.79 -0.81,1.96 -1.45,1.96 -2.25,1.96 -2.89,1.63 -3.21,1.14 -3.69,0.65 -4.01,0 -4.01,-0.82 c 0,-0.98 0.32,-1.63 0.8,-2.12 0.32,-0.49 0.96,-0.82 1.76,-0.82 0.64,0 1.28,0.33 1.61,0.82 0.48,0.49 0.8,1.14 0.8,1.96 0,0.16 0,0.16 0,0.32 h -4.01 c 0,0.49 0.16,0.98 0.48,1.31 0.32,0.33 0.64,0.49 1.12,0.49 0.32,0 0.64,-0.16 0.8,-0.33 C -0.33,0.65 -0.17,0.49 0,0 Z M -3.05,-1.47 H 0 c 0,-0.49 -0.17,-0.82 -0.33,-0.98 -0.32,-0.33 -0.64,-0.49 -1.12,-0.49 -0.48,0 -0.8,0.16 -1.12,0.32 -0.16,0.33 -0.32,0.66 -0.48,1.15 z"
       id="path96" />
    <path
       transform="matrix(0.75,0,0,0.75,246.84,57.855)"
       d="m 0,0 v -5.39 h 0.8 v 0.82 c 0.32,-0.33 0.48,-0.65 0.64,-0.82 0.16,0 0.32,-0.16 0.64,-0.16 0.16,0 0.48,0.16 0.8,0.33 L 2.56,-4.41 C 2.4,-4.57 2.24,-4.57 1.92,-4.57 c -0.16,0 -0.32,0 -0.48,0.16 -0.16,0.17 -0.32,0.33 -0.32,0.49 -0.16,0.33 -0.16,0.66 -0.16,1.15 V 0 Z"
       id="path97" />
    <path
       transform="matrix(0.75,0,0,0.75,249.12,56.6325)"
       d="m 0,0 0.96,-0.16 c 0,0.32 0.16,0.65 0.32,0.81 0.32,0.17 0.65,0.33 0.97,0.33 0.48,0 0.8,-0.16 0.96,-0.33 C 3.37,0.49 3.53,0.33 3.53,0.16 3.53,-0.16 3.37,-0.33 3.21,-0.33 3.21,-0.49 2.89,-0.49 2.41,-0.65 1.77,-0.82 1.28,-0.98 0.96,-1.14 0.8,-1.31 0.48,-1.47 0.48,-1.63 0.32,-1.8 0.16,-2.12 0.16,-2.29 c 0,-0.32 0.16,-0.49 0.16,-0.65 0.16,-0.33 0.32,-0.49 0.48,-0.65 0.16,0 0.32,-0.17 0.64,-0.17 0.16,-0.16 0.49,-0.16 0.65,-0.16 0.48,0 0.8,0.16 1.12,0.16 0.32,0.17 0.64,0.33 0.8,0.49 0.16,0.33 0.16,0.49 0.16,0.82 l -0.8,0.16 C 3.37,-2.61 3.21,-2.78 3.05,-2.94 2.89,-3.1 2.57,-3.1 2.25,-3.1 c -0.48,0 -0.81,0 -0.97,0.16 -0.16,0.16 -0.16,0.33 -0.16,0.49 0,0.16 0,0.16 0,0.33 0.16,0.16 0.32,0.16 0.48,0.16 0,0.16 0.33,0.16 0.65,0.33 0.64,0.16 1.12,0.32 1.44,0.32 0.16,0.17 0.48,0.33 0.48,0.49 C 4.33,-0.49 4.49,-0.33 4.49,0 4.49,0.33 4.33,0.65 4.17,0.82 4.01,1.14 3.69,1.31 3.37,1.47 3.05,1.63 2.73,1.8 2.25,1.8 1.6,1.8 1.12,1.63 0.8,1.31 0.32,0.98 0.16,0.49 0,0 Z"
       id="path98" />
    <path
       transform="matrix(0.75,0,0,0.75,255.85501,57.3675)"
       d="M 0,0 C -0.32,0.33 -0.65,0.49 -0.97,0.49 -1.29,0.65 -1.61,0.82 -1.93,0.82 -2.57,0.82 -3.05,0.65 -3.37,0.33 -3.69,0 -3.85,-0.33 -3.85,-0.82 c 0,-0.16 0.16,-0.49 0.32,-0.65 0,-0.33 0.16,-0.49 0.32,-0.65 0.32,0 0.48,-0.17 0.64,-0.17 0.32,-0.16 0.48,-0.16 0.8,-0.16 0.8,-0.16 1.28,-0.16 1.61,-0.33 0,-0.16 0,-0.16 0,-0.32 0,-0.33 0,-0.49 -0.16,-0.66 -0.33,-0.32 -0.65,-0.32 -1.13,-0.32 -0.32,0 -0.64,0 -0.8,0.16 -0.32,0.16 -0.32,0.49 -0.48,0.82 l -0.96,-0.17 c 0.16,-0.32 0.32,-0.65 0.48,-0.81 0.16,-0.33 0.48,-0.49 0.8,-0.66 0.32,0 0.64,-0.16 1.12,-0.16 0.48,0 0.8,0 1.13,0.16 0.32,0.17 0.48,0.33 0.64,0.49 0.16,0.17 0.16,0.33 0.32,0.49 0,0.17 0,0.49 0,0.98 v 1.15 c 0,0.81 0,1.3 0,1.63 0.16,0.16 0.16,0.49 0.32,0.65 H 0.16 C 0,0.49 0,0.16 0,0 Z m -0.16,-2.12 c -0.33,0.16 -0.81,0.32 -1.45,0.32 -0.32,0.17 -0.64,0.17 -0.8,0.33 -0.16,0 -0.16,0.16 -0.32,0.16 0,0.17 -0.16,0.33 -0.16,0.49 0,0.17 0.16,0.49 0.32,0.66 C -2.41,0 -2.09,0 -1.77,0 c 0.32,0 0.64,0 0.96,-0.16 0.16,-0.17 0.49,-0.33 0.49,-0.66 0.16,-0.16 0.16,-0.49 0.16,-0.98 z"
       id="path99" />
  </g>
  <path
     d="m 228.84,23.88 h 0.72 v 5.64 h -0.72 z"
     id="path100"
     style="stroke-width:0.75" />
  <g
     clip-path="url(#clip_14)"
     id="g129"
     transform="translate(-28.56,-28.32)">
    <path
       transform="matrix(0.75,0,0,0.75,37.605,52.9575)"
       d="m 0,0 h -0.16 -0.16 c 0,-0.16 0,-0.16 0.16,-0.33 v -0.16 c 0,0 0.16,0 0.32,0 0.65,0 1.13,-0.33 1.61,-0.65 0,0 0.48,-0.66 1.28,-1.47 C 3.85,-3.6 4.33,-4.09 4.33,-4.09 3.53,-6.37 3.05,-7.52 3.05,-7.52 2.89,-7.68 2.73,-7.68 2.25,-7.68 H 1.93 c -0.16,0 -0.16,-0.16 -0.16,-0.16 v -0.17 l 0.16,-0.16 h 0.16 c 0.32,0 0.8,0 1.44,0 0.32,0 0.48,0 0.8,0 0.16,0 0.32,0 0.48,0 0.16,0 0.16,0 0.32,0 h 0.16 v 0.16 c 0,0.17 -0.16,0.33 -0.16,0.33 H 4.97 c -0.16,0 -0.48,0.16 -0.64,0.16 l 0.96,2.45 0.64,-0.81 c 0.8,-0.82 1.29,-1.31 1.29,-1.47 0,-0.17 -0.17,-0.33 -0.33,-0.33 H 6.73 c -0.16,0 -0.16,0 -0.16,-0.16 v -0.17 c 0,-0.16 0,-0.16 0.16,-0.16 0,0 0.16,0 0.32,0 0.17,0 0.49,0 0.65,0 0.32,0 0.48,0 0.48,0 0.8,0 1.12,0 1.28,0 h 0.16 c 0,0.33 -0.16,0.33 -0.16,0.49 H 9.3 c -0.32,0 -0.48,0 -0.8,0.16 -0.16,0 -0.32,0 -0.48,0.17 -0.16,0 -0.16,0.16 -0.32,0.16 v 0.16 c 0,0 -0.48,0.33 -1.29,1.31 l -0.96,1.14 c 0,0 0.16,0.33 0.32,0.98 0.32,0.66 0.48,1.31 0.8,1.97 0.32,0.65 0.48,0.98 0.48,0.98 0,0.16 0.33,0.16 0.65,0.16 0.32,0 0.48,0 0.48,0.16 v 0.17 c 0,0 0,0.16 -0.16,0.16 H 7.86 C 7.86,0 7.7,0 7.54,0 7.22,0 6.89,0 6.41,0 5.93,0 5.61,0 5.29,0 5.13,0 4.97,0 4.97,0 4.81,0 4.65,0 4.65,0 l 0.16,-0.16 c 0,-0.17 0,-0.17 0,-0.33 h 0.16 0.16 c 0.16,0 0.16,0 0.32,-0.16 h 0.16 c 0,0 -0.16,-0.49 -0.48,-1.47 L 4.49,-3.6 c -1.44,1.64 -2.24,2.62 -2.24,2.62 v 0.16 c 0,0.17 0,0.33 0.32,0.33 h 0.16 c 0.16,0 0.16,0.16 0.16,0.16 0,0 0,0.17 -0.16,0.17 V 0 H 2.57 2.41 C 2.25,0 2.09,0 1.77,0 1.61,0 1.45,0 1.13,0 0.49,0 0.16,0 0,0 Z"
       id="path101" />
    <path
       transform="matrix(0.75,0,0,0.75,37.605,52.9575)"
       stroke-width="0.16"
       stroke-linecap="butt"
       stroke-miterlimit="4"
       stroke-linejoin="miter"
       fill="none"
       stroke="#000000"
       d="m 0,0 h -0.16 -0.16 c 0,-0.16 0,-0.16 0.16,-0.33 v -0.16 c 0,0 0.16,0 0.32,0 0.65,0 1.13,-0.33 1.61,-0.65 0,0 0.48,-0.66 1.28,-1.47 C 3.85,-3.6 4.33,-4.09 4.33,-4.09 3.53,-6.37 3.05,-7.52 3.05,-7.52 2.89,-7.68 2.73,-7.68 2.25,-7.68 H 1.93 c -0.16,0 -0.16,-0.16 -0.16,-0.16 v -0.17 l 0.16,-0.16 h 0.16 c 0.32,0 0.8,0 1.44,0 0.32,0 0.48,0 0.8,0 0.16,0 0.32,0 0.48,0 0.16,0 0.16,0 0.32,0 h 0.16 v 0.16 c 0,0.17 -0.16,0.33 -0.16,0.33 H 4.97 c -0.16,0 -0.48,0.16 -0.64,0.16 l 0.96,2.45 0.64,-0.81 c 0.8,-0.82 1.29,-1.31 1.29,-1.47 0,-0.17 -0.17,-0.33 -0.33,-0.33 H 6.73 c -0.16,0 -0.16,0 -0.16,-0.16 v -0.17 c 0,-0.16 0,-0.16 0.16,-0.16 0,0 0.16,0 0.32,0 0.17,0 0.49,0 0.65,0 0.32,0 0.48,0 0.48,0 0.8,0 1.12,0 1.28,0 h 0.16 c 0,0.33 -0.16,0.33 -0.16,0.49 H 9.3 c -0.32,0 -0.48,0 -0.8,0.16 -0.16,0 -0.32,0 -0.48,0.17 -0.16,0 -0.16,0.16 -0.32,0.16 v 0.16 c 0,0 -0.48,0.33 -1.29,1.31 l -0.96,1.14 c 0,0 0.16,0.33 0.32,0.98 0.32,0.66 0.48,1.31 0.8,1.97 0.32,0.65 0.48,0.98 0.48,0.98 0,0.16 0.33,0.16 0.65,0.16 0.32,0 0.48,0 0.48,0.16 v 0.17 c 0,0 0,0.16 -0.16,0.16 H 7.86 C 7.86,0 7.7,0 7.54,0 7.22,0 6.89,0 6.41,0 5.93,0 5.61,0 5.29,0 5.13,0 4.97,0 4.97,0 4.81,0 4.65,0 4.65,0 l 0.16,-0.16 c 0,-0.17 0,-0.17 0,-0.33 h 0.16 0.16 c 0.16,0 0.16,0 0.32,-0.16 h 0.16 c 0,0 -0.16,-0.49 -0.48,-1.47 L 4.49,-3.6 c -1.44,1.64 -2.24,2.62 -2.24,2.62 v 0.16 c 0,0.17 0,0.33 0.32,0.33 h 0.16 c 0.16,0 0.16,0.16 0.16,0.16 0,0 0,0.17 -0.16,0.17 V 0 H 2.57 2.41 C 2.25,0 2.09,0 1.77,0 1.61,0 1.45,0 1.13,0 0.49,0 0.16,0 0,0 Z"
       id="path102" />
    <path
       transform="matrix(0.75,0,0,0.75,45.9,55.2825)"
       d="m 0,0 v -12.09 h 1.6 v 0.49 H 0.48 V -0.49 H 1.6 V 0 Z"
       id="path103" />
    <path
       transform="matrix(0.75,0,0,0.75,45.9,55.2825)"
       stroke-width="0.16"
       stroke-linecap="butt"
       stroke-miterlimit="4"
       stroke-linejoin="miter"
       fill="none"
       stroke="#000000"
       d="m 0,0 v -12.09 h 1.6 v 0.49 H 0.48 V -0.49 H 1.6 V 0 Z"
       id="path104" />
    <path
       transform="matrix(0.75,0,0,0.75,47.46,50.385004)"
       d="m 0,0 v -0.17 c 0,-0.16 0.16,-0.32 0.16,-0.49 0.16,-0.16 0.16,-0.49 0.32,-0.65 0,0 0.16,-0.16 0.33,-0.33 0.16,-0.16 0.32,-0.32 0.48,-0.32 0.16,0.16 0.48,0.16 0.64,0.16 0.16,0 0.16,0.16 0.32,0.16 0,0.17 0.16,0.17 0.16,0.33 l 0.16,0.16 v 0.17 l 0.16,-0.17 c 0.48,-0.49 0.96,-0.81 1.6,-0.81 0.16,0 0.32,0.16 0.32,0.16 0.16,0 0.32,0 0.32,0 0.16,0 0.16,0.16 0.32,0.16 l 0.16,0.17 c 0,0 0.16,0 0.16,0.16 v 0.16 c 0.16,0 0.16,0 0.16,0.17 -0.16,0 -0.16,0 0,0 v 0.16 -0.16 c 0.64,-0.66 1.12,-0.98 1.93,-0.98 0.32,0 0.64,0.16 0.96,0.32 0.32,0.33 0.48,0.66 0.48,0.98 0,0.49 -0.16,1.15 -0.48,1.97 C 8.34,2.12 8.18,2.78 8.18,2.94 V 3.1 h 0.16 c 0.32,0 0.48,0 0.64,-0.32 C 9.14,2.61 9.3,2.29 9.46,1.8 c 0,0 0,-0.17 0.16,-0.17 h 0.16 c 0.16,0 0.16,0 0.16,0.17 V 1.96 C 9.94,2.12 9.78,2.45 9.62,2.61 9.62,2.78 9.46,3.1 9.14,3.27 8.82,3.43 8.66,3.59 8.34,3.59 7.86,3.59 7.7,3.43 7.53,3.27 7.37,3.1 7.21,2.78 7.21,2.61 7.21,2.45 7.37,1.96 7.7,1.14 c 0.32,-0.81 0.48,-1.47 0.48,-1.8 0,-0.49 -0.16,-0.81 -0.65,-0.81 -0.64,0 -1.28,0.49 -1.76,1.3 V 0 L 5.29,1.63 C 5.13,2.61 4.97,3.27 4.81,3.27 4.81,3.59 4.65,3.59 4.33,3.59 H 4.17 L 4.01,3.43 V 3.27 c 0,-0.17 0,-0.66 0.32,-1.8 l 0.48,-1.64 c 0,-0.16 0,-0.32 0,-0.49 0,-0.49 -0.16,-0.81 -0.48,-0.81 H 4.17 c -0.64,0 -1.12,0.49 -1.6,1.3 L 2.41,0 2.09,1.63 C 1.77,2.61 1.61,3.27 1.61,3.27 1.45,3.59 1.29,3.59 1.13,3.59 c -0.16,0 -0.32,0 -0.32,0 C 0.81,3.43 0.64,3.43 0.64,3.43 V 3.27 C 0.64,3.1 0.81,2.45 1.13,1.31 1.45,0 1.61,-0.66 1.61,-0.66 c 0,-0.16 0,-0.32 0,-0.32 0,-0.33 -0.16,-0.49 -0.32,-0.49 -0.16,0 -0.32,0.16 -0.48,0.32 0,0.33 -0.17,0.49 -0.17,0.82 C 0.48,-0.17 0.48,0 0.48,0.16 H 0.32 0.16 Z"
       id="path105" />
    <path
       transform="matrix(0.75,0,0,0.75,47.46,50.385004)"
       stroke-width="0.16"
       stroke-linecap="butt"
       stroke-miterlimit="4"
       stroke-linejoin="miter"
       fill="none"
       stroke="#000000"
       d="m 0,0 v -0.17 c 0,-0.16 0.16,-0.32 0.16,-0.49 0.16,-0.16 0.16,-0.49 0.32,-0.65 0,0 0.16,-0.16 0.33,-0.33 0.16,-0.16 0.32,-0.32 0.48,-0.32 0.16,0.16 0.48,0.16 0.64,0.16 0.16,0 0.16,0.16 0.32,0.16 0,0.17 0.16,0.17 0.16,0.33 l 0.16,0.16 v 0.17 l 0.16,-0.17 c 0.48,-0.49 0.96,-0.81 1.6,-0.81 0.16,0 0.32,0.16 0.32,0.16 0.16,0 0.32,0 0.32,0 0.16,0 0.16,0.16 0.32,0.16 l 0.16,0.17 c 0,0 0.16,0 0.16,0.16 v 0.16 c 0.16,0 0.16,0 0.16,0.17 -0.16,0 -0.16,0 0,0 v 0.16 -0.16 c 0.64,-0.66 1.12,-0.98 1.93,-0.98 0.32,0 0.64,0.16 0.96,0.32 0.32,0.33 0.48,0.66 0.48,0.98 0,0.49 -0.16,1.15 -0.48,1.97 C 8.34,2.12 8.18,2.78 8.18,2.94 V 3.1 h 0.16 c 0.32,0 0.48,0 0.64,-0.32 C 9.14,2.61 9.3,2.29 9.46,1.8 c 0,0 0,-0.17 0.16,-0.17 h 0.16 c 0.16,0 0.16,0 0.16,0.17 V 1.96 C 9.94,2.12 9.78,2.45 9.62,2.61 9.62,2.78 9.46,3.1 9.14,3.27 8.82,3.43 8.66,3.59 8.34,3.59 7.86,3.59 7.7,3.43 7.53,3.27 7.37,3.1 7.21,2.78 7.21,2.61 7.21,2.45 7.37,1.96 7.7,1.14 c 0.32,-0.81 0.48,-1.47 0.48,-1.8 0,-0.49 -0.16,-0.81 -0.65,-0.81 -0.64,0 -1.28,0.49 -1.76,1.3 V 0 L 5.29,1.63 C 5.13,2.61 4.97,3.27 4.81,3.27 4.81,3.59 4.65,3.59 4.33,3.59 H 4.17 L 4.01,3.43 V 3.27 c 0,-0.17 0,-0.66 0.32,-1.8 l 0.48,-1.64 c 0,-0.16 0,-0.32 0,-0.49 0,-0.49 -0.16,-0.81 -0.48,-0.81 H 4.17 c -0.64,0 -1.12,0.49 -1.6,1.3 L 2.41,0 2.09,1.63 C 1.77,2.61 1.61,3.27 1.61,3.27 1.45,3.59 1.29,3.59 1.13,3.59 c -0.16,0 -0.32,0 -0.32,0 C 0.81,3.43 0.64,3.43 0.64,3.43 V 3.27 C 0.64,3.1 0.81,2.45 1.13,1.31 1.45,0 1.61,-0.66 1.61,-0.66 c 0,-0.16 0,-0.32 0,-0.32 0,-0.33 -0.16,-0.49 -0.32,-0.49 -0.16,0 -0.32,0.16 -0.48,0.32 0,0.33 -0.17,0.49 -0.17,0.82 C 0.48,-0.17 0.48,0 0.48,0.16 H 0.32 0.16 Z"
       id="path106" />
    <path
       transform="matrix(0.75,0,0,0.75,55.395,46.5825)"
       d="M 0,0 V -0.49 H 1.6 V 11.6 H 0 V 11.11 H 1.12 V 0 Z"
       id="path107" />
    <path
       transform="matrix(0.75,0,0,0.75,55.395,46.5825)"
       stroke-width="0.16"
       stroke-linecap="butt"
       stroke-miterlimit="4"
       stroke-linejoin="miter"
       fill="none"
       stroke="#000000"
       d="M 0,0 V -0.49 H 1.6 V 11.6 H 0 V 11.11 H 1.12 V 0 Z"
       id="path108" />
    <path
       transform="matrix(0.75,0,0,0.75,539.59506,47.197504)"
       d="m 0,0 c -0.16,0 -0.16,0 -0.32,0 h -0.16 v -0.16 -0.17 c 0,-0.16 0.16,-0.16 0.16,-0.16 h 0.16 c 0.32,0 0.8,0 1.28,0 0.96,0 1.6,0 1.76,0 h 0.16 c 0,0 0,0.16 0,0.33 C 2.88,-0.16 2.88,0 2.88,0 H 2.72 C 2.24,0 2.08,0 2.08,0.16 c 0,0 0.16,0.66 0.64,1.8 C 3.04,3.1 3.2,3.59 3.2,3.76 L 3.36,3.59 V 3.43 C 3.52,3.43 3.52,3.27 3.68,3.27 3.84,3.1 3.84,2.94 4,2.78 4.16,2.61 4.32,2.29 4.64,2.12 5.28,1.31 5.77,0.82 5.93,0.65 5.93,0.49 6.09,0.33 6.09,0.16 6.09,0.16 5.93,0 5.6,0 5.44,0 5.44,0 5.44,-0.16 v -0.17 c 0,-0.16 0,-0.16 0.16,-0.16 h 0.17 0.32 c 0.16,0 0.48,0 0.96,0 0.16,0 0.32,0 0.64,0 0.16,0 0.32,0 0.32,0 0.16,0 0.32,0 0.32,0 l -0.16,0.16 c 0,0.17 0,0.17 0,0.33 0,0 -0.16,0 -0.32,0 C 7.37,0 6.89,0.16 6.57,0.65 6.41,0.65 5.93,1.31 4.8,2.61 L 3.36,4.41 3.04,5.72 C 2.72,6.54 2.72,7.03 2.72,7.03 c 0,0.16 0.16,0.16 0.8,0.16 h 0.16 c 0.16,0 0.16,0 0.16,0.16 V 7.52 C 3.68,7.52 3.68,7.68 3.68,7.68 H 3.52 c 0,0 -0.16,0 -0.48,0 -0.32,0 -0.64,0 -1.12,0 -0.48,0 -0.8,0 -1.12,0 -0.32,0 -0.32,0 -0.48,0 H 0.16 V 7.52 7.35 L 0.32,7.19 h 0.16 0.16 c 0.32,0 0.64,0 0.64,0 C 1.44,7.03 1.44,7.03 1.6,7.03 1.6,6.86 1.6,6.54 1.92,5.72 L 2.24,4.41 0.64,0.16 V 0 H 0.48 0.32 0.16 Z"
       id="path109" />
    <path
       transform="matrix(0.75,0,0,0.75,539.59506,47.197504)"
       stroke-width="0.16"
       stroke-linecap="butt"
       stroke-miterlimit="4"
       stroke-linejoin="miter"
       fill="none"
       stroke="#000000"
       d="m 0,0 c -0.16,0 -0.16,0 -0.32,0 h -0.16 v -0.16 -0.17 c 0,-0.16 0.16,-0.16 0.16,-0.16 h 0.16 c 0.32,0 0.8,0 1.28,0 0.96,0 1.6,0 1.76,0 h 0.16 c 0,0 0,0.16 0,0.33 C 2.88,-0.16 2.88,0 2.88,0 H 2.72 C 2.24,0 2.08,0 2.08,0.16 c 0,0 0.16,0.66 0.64,1.8 C 3.04,3.1 3.2,3.59 3.2,3.76 L 3.36,3.59 V 3.43 C 3.52,3.43 3.52,3.27 3.68,3.27 3.84,3.1 3.84,2.94 4,2.78 4.16,2.61 4.32,2.29 4.64,2.12 5.28,1.31 5.77,0.82 5.93,0.65 5.93,0.49 6.09,0.33 6.09,0.16 6.09,0.16 5.93,0 5.6,0 5.44,0 5.44,0 5.44,-0.16 v -0.17 c 0,-0.16 0,-0.16 0.16,-0.16 h 0.17 0.32 c 0.16,0 0.48,0 0.96,0 0.16,0 0.32,0 0.64,0 0.16,0 0.32,0 0.32,0 0.16,0 0.32,0 0.32,0 l -0.16,0.16 c 0,0.17 0,0.17 0,0.33 0,0 -0.16,0 -0.32,0 C 7.37,0 6.89,0.16 6.57,0.65 6.41,0.65 5.93,1.31 4.8,2.61 L 3.36,4.41 3.04,5.72 C 2.72,6.54 2.72,7.03 2.72,7.03 c 0,0.16 0.16,0.16 0.8,0.16 h 0.16 c 0.16,0 0.16,0 0.16,0.16 V 7.52 C 3.68,7.52 3.68,7.68 3.68,7.68 H 3.52 c 0,0 -0.16,0 -0.48,0 -0.32,0 -0.64,0 -1.12,0 -0.48,0 -0.8,0 -1.12,0 -0.32,0 -0.32,0 -0.48,0 H 0.16 V 7.52 7.35 L 0.32,7.19 h 0.16 0.16 c 0.32,0 0.64,0 0.64,0 C 1.44,7.03 1.44,7.03 1.6,7.03 1.6,6.86 1.6,6.54 1.92,5.72 L 2.24,4.41 0.64,0.16 V 0 H 0.48 0.32 0.16 Z"
       id="path110" />
    <path
       transform="matrix(0.75,0,0,0.75,546.8025,55.2825)"
       d="m 0,0 v -12.09 h 1.76 v 0.49 H 0.48 V -0.49 H 1.76 V 0 Z"
       id="path111" />
    <path
       transform="matrix(0.75,0,0,0.75,546.8025,55.2825)"
       stroke-width="0.16"
       stroke-linecap="butt"
       stroke-miterlimit="4"
       stroke-linejoin="miter"
       fill="none"
       stroke="#000000"
       d="m 0,0 v -12.09 h 1.76 v 0.49 H 0.48 V -0.49 H 1.76 V 0 Z"
       id="path112" />
    <path
       transform="matrix(0.75,0,0,0.75,548.4825,50.385004)"
       d="m 0,0 v -0.17 c 0,-0.16 0,-0.32 0.16,-0.49 0,-0.16 0.16,-0.49 0.16,-0.65 0.16,0 0.33,-0.16 0.49,-0.33 0.16,-0.16 0.32,-0.32 0.48,-0.32 0.16,0.16 0.32,0.16 0.48,0.16 0.16,0 0.32,0.16 0.32,0.16 0.16,0.17 0.16,0.17 0.32,0.33 v 0.16 0.17 h 0.16 v -0.17 c 0.48,-0.49 1.12,-0.81 1.76,-0.81 0.16,0 0.16,0.16 0.32,0.16 0.16,0 0.16,0 0.32,0 0.16,0 0.16,0.16 0.16,0.16 0.16,0 0.16,0 0.32,0.17 v 0.16 c 0,0 0.16,0 0.16,0.16 v 0.17 c 0.16,0 0.16,0.16 0.16,0.16 v -0.16 c 0.48,-0.66 1.12,-0.98 1.77,-0.98 0.48,0 0.8,0.16 1.12,0.32 0.16,0.33 0.32,0.66 0.32,0.98 0,0.49 -0.16,1.15 -0.48,1.97 C 8.34,2.12 8.18,2.78 8.18,2.94 V 3.1 h 0.16 c 0.32,0 0.48,0 0.64,-0.32 C 9.14,2.61 9.3,2.29 9.46,1.8 V 1.63 c 0,0 0.16,0 0.32,0 0.16,0 0.16,0 0.16,0.17 V 1.96 C 9.78,2.12 9.78,2.45 9.62,2.61 9.46,2.78 9.3,3.1 9.14,3.27 8.82,3.43 8.5,3.59 8.34,3.59 7.86,3.59 7.7,3.43 7.38,3.27 7.21,3.1 7.21,2.78 7.21,2.61 7.21,2.45 7.38,1.96 7.7,1.14 c 0.16,-0.81 0.32,-1.47 0.32,-1.8 0,-0.49 -0.16,-0.81 -0.48,-0.81 -0.81,0 -1.29,0.49 -1.77,1.3 L 5.61,0 5.29,1.63 C 4.97,2.61 4.81,3.27 4.81,3.27 4.65,3.59 4.49,3.59 4.33,3.59 c -0.16,0 -0.16,0 -0.32,0 V 3.43 C 3.85,3.43 3.85,3.27 3.85,3.27 3.85,3.1 4.01,2.61 4.33,1.47 l 0.32,-1.64 c 0.16,-0.16 0.16,-0.32 0.16,-0.49 0,-0.49 -0.16,-0.81 -0.64,-0.81 -0.64,0 -1.28,0.49 -1.76,1.3 V 0 L 1.93,1.63 C 1.77,2.61 1.61,3.27 1.45,3.27 1.45,3.59 1.29,3.59 0.97,3.59 H 0.81 L 0.65,3.43 V 3.27 C 0.65,3.1 0.81,2.45 1.13,1.31 1.45,0 1.45,-0.66 1.45,-0.66 c 0.16,-0.16 0.16,-0.32 0.16,-0.32 0,-0.33 -0.16,-0.49 -0.32,-0.49 -0.16,0 -0.32,0.16 -0.48,0.32 -0.16,0.33 -0.16,0.49 -0.33,0.82 0,0.16 0,0.33 -0.16,0.49 H 0.16 0 Z"
       id="path113" />
    <path
       transform="matrix(0.75,0,0,0.75,548.4825,50.385004)"
       stroke-width="0.16"
       stroke-linecap="butt"
       stroke-miterlimit="4"
       stroke-linejoin="miter"
       fill="none"
       stroke="#000000"
       d="m 0,0 v -0.17 c 0,-0.16 0,-0.32 0.16,-0.49 0,-0.16 0.16,-0.49 0.16,-0.65 0.16,0 0.33,-0.16 0.49,-0.33 0.16,-0.16 0.32,-0.32 0.48,-0.32 0.16,0.16 0.32,0.16 0.48,0.16 0.16,0 0.32,0.16 0.32,0.16 0.16,0.17 0.16,0.17 0.32,0.33 v 0.16 0.17 h 0.16 v -0.17 c 0.48,-0.49 1.12,-0.81 1.76,-0.81 0.16,0 0.16,0.16 0.32,0.16 0.16,0 0.16,0 0.32,0 0.16,0 0.16,0.16 0.16,0.16 0.16,0 0.16,0 0.32,0.17 v 0.16 c 0,0 0.16,0 0.16,0.16 v 0.17 c 0.16,0 0.16,0.16 0.16,0.16 v -0.16 c 0.48,-0.66 1.12,-0.98 1.77,-0.98 0.48,0 0.8,0.16 1.12,0.32 0.16,0.33 0.32,0.66 0.32,0.98 0,0.49 -0.16,1.15 -0.48,1.97 C 8.34,2.12 8.18,2.78 8.18,2.94 V 3.1 h 0.16 c 0.32,0 0.48,0 0.64,-0.32 C 9.14,2.61 9.3,2.29 9.46,1.8 V 1.63 c 0,0 0.16,0 0.32,0 0.16,0 0.16,0 0.16,0.17 V 1.96 C 9.78,2.12 9.78,2.45 9.62,2.61 9.46,2.78 9.3,3.1 9.14,3.27 8.82,3.43 8.5,3.59 8.34,3.59 7.86,3.59 7.7,3.43 7.38,3.27 7.21,3.1 7.21,2.78 7.21,2.61 7.21,2.45 7.38,1.96 7.7,1.14 c 0.16,-0.81 0.32,-1.47 0.32,-1.8 0,-0.49 -0.16,-0.81 -0.48,-0.81 -0.81,0 -1.29,0.49 -1.77,1.3 L 5.61,0 5.29,1.63 C 4.97,2.61 4.81,3.27 4.81,3.27 4.65,3.59 4.49,3.59 4.33,3.59 c -0.16,0 -0.16,0 -0.32,0 V 3.43 C 3.85,3.43 3.85,3.27 3.85,3.27 3.85,3.1 4.01,2.61 4.33,1.47 l 0.32,-1.64 c 0.16,-0.16 0.16,-0.32 0.16,-0.49 0,-0.49 -0.16,-0.81 -0.64,-0.81 -0.64,0 -1.28,0.49 -1.76,1.3 V 0 L 1.93,1.63 C 1.77,2.61 1.61,3.27 1.45,3.27 1.45,3.59 1.29,3.59 0.97,3.59 H 0.81 L 0.65,3.43 V 3.27 C 0.65,3.1 0.81,2.45 1.13,1.31 1.45,0 1.45,-0.66 1.45,-0.66 c 0.16,-0.16 0.16,-0.32 0.16,-0.32 0,-0.33 -0.16,-0.49 -0.32,-0.49 -0.16,0 -0.32,0.16 -0.48,0.32 -0.16,0.33 -0.16,0.49 -0.33,0.82 0,0.16 0,0.33 -0.16,0.49 H 0.16 0 Z"
       id="path114" />
    <path
       transform="matrix(0.75,0,0,0.75,556.2975,46.5825)"
       d="M 0,0 V -0.49 H 1.6 V 11.6 H 0 V 11.11 H 1.12 V 0 Z"
       id="path115" />
    <path
       transform="matrix(0.75,0,0,0.75,556.2975,46.5825)"
       stroke-width="0.16"
       stroke-linecap="butt"
       stroke-miterlimit="4"
       stroke-linejoin="miter"
       fill="none"
       stroke="#000000"
       d="M 0,0 V -0.49 H 1.6 V 11.6 H 0 V 11.11 H 1.12 V 0 Z"
       id="path116" />
    <path
       transform="scale(0.75)"
       stroke-width="0.961"
       stroke-linecap="butt"
       stroke-miterlimit="10"
       stroke-linejoin="miter"
       fill="none"
       stroke="#000000"
       d="m 88.12,67.18 h 17.15"
       id="path117" />
    <path
       transform="scale(0.75)"
       d="m 109.75,67.18 -5.93,2.94 1.45,-2.94 -1.45,-3.11 z"
       id="path118" />
    <path
       transform="scale(0.75)"
       stroke-width="0.961"
       stroke-linecap="butt"
       stroke-miterlimit="10"
       stroke-linejoin="miter"
       fill="none"
       stroke="#000000"
       d="m 109.75,67.18 -5.93,2.94 1.45,-2.94 -1.45,-3.11 z"
       id="path119" />
    <path
       transform="matrix(0.75,0,0,0.75,280.48503,43.275)"
       d="M 0,0 V 0 C -0.16,0 -0.16,0 -0.16,-0.16 V -0.32 C -0.16,-0.49 0,-0.49 0,-0.49 h 0.16 c 0.65,-0.16 1.29,-0.32 1.61,-0.65 0.16,-0.17 0.64,-0.66 1.44,-1.64 0.8,-0.81 1.28,-1.3 1.28,-1.3 -0.96,-2.29 -1.44,-3.43 -1.44,-3.6 0,0 -0.32,0 -0.8,0 H 1.93 V -7.84 -8 c 0,-0.17 0,-0.33 0.16,-0.33 h 0.16 c 0.16,0 0.64,0 1.44,0 0.16,0 0.48,0 0.64,0 0.32,0 0.48,0 0.64,0 h 0.16 c 0.16,0 0.16,0 0.16,0.16 V -8 -7.84 l -0.16,0.16 c -0.32,0 -0.48,0 -0.64,0.17 l 0.8,2.28 0.64,-0.65 c 0.8,-0.98 1.29,-1.47 1.29,-1.47 0,-0.16 -0.17,-0.33 -0.33,-0.33 H 6.73 L 6.57,-7.84 V -8 c 0.16,-0.17 0.16,-0.33 0.16,-0.33 h 0.16 c 0,0 0.16,0 0.33,0 0.16,0 0.32,0 0.64,0 0.16,0 0.32,0 0.48,0 0.64,0 1.12,0 1.12,0 h 0.16 v 0.16 c 0,0.17 0,0.33 -0.16,0.49 H 9.3 c -0.16,0 -0.48,0 -0.64,0 -0.32,0.17 -0.48,0.17 -0.48,0.17 -0.16,0.16 -0.32,0.16 -0.32,0.32 H 7.7 c 0,0 -0.32,0.49 -1.13,1.31 l -0.96,1.14 c 0,0 0,0.33 0.32,0.98 0.16,0.66 0.48,1.31 0.8,1.96 0.16,0.82 0.32,1.15 0.32,1.15 0.17,0 0.33,0 0.81,0.16 0.32,0 0.48,0 0.48,0 0,0 0,0.17 -0.16,0.17 0,0.16 0,0.32 0,0.32 H 8.02 C 8.02,0 7.86,0 7.54,0 7.38,0 7.05,0 6.57,0 6.09,0 5.61,0 5.45,0 5.13,0 4.97,0 4.97,0 4.81,0 4.81,0 4.81,-0.16 v -0.16 -0.17 h 0.16 0.16 c 0,-0.16 0,-0.16 0.16,-0.16 0,0 0.16,0 0.32,0 l 0.16,-0.16 c 0,0 -0.16,-0.5 -0.64,-1.48 l -0.48,-1.3 c -1.44,1.63 -2.24,2.45 -2.24,2.61 -0.16,0 -0.16,0 -0.16,0.17 0,0.16 0.16,0.16 0.32,0.16 h 0.16 v 0.16 h 0.16 c 0,0.17 0,0.17 0,0.33 V 0 C 2.73,0 2.73,0 2.57,0 H 2.41 C 2.25,0 2.09,0 1.93,0 1.77,0 1.45,0 1.29,0 0.65,0 0.16,0 0,0 Z"
       id="path120" />
    <path
       transform="matrix(0.75,0,0,0.75,280.48503,43.275)"
       stroke-width="0.16"
       stroke-linecap="butt"
       stroke-miterlimit="4"
       stroke-linejoin="miter"
       fill="none"
       stroke="#000000"
       d="M 0,0 V 0 C -0.16,0 -0.16,0 -0.16,-0.16 V -0.32 C -0.16,-0.49 0,-0.49 0,-0.49 h 0.16 c 0.65,-0.16 1.29,-0.32 1.61,-0.65 0.16,-0.17 0.64,-0.66 1.44,-1.64 0.8,-0.81 1.28,-1.3 1.28,-1.3 -0.96,-2.29 -1.44,-3.43 -1.44,-3.6 0,0 -0.32,0 -0.8,0 H 1.93 V -7.84 -8 c 0,-0.17 0,-0.33 0.16,-0.33 h 0.16 c 0.16,0 0.64,0 1.44,0 0.16,0 0.48,0 0.64,0 0.32,0 0.48,0 0.64,0 h 0.16 c 0.16,0 0.16,0 0.16,0.16 V -8 -7.84 l -0.16,0.16 c -0.32,0 -0.48,0 -0.64,0.17 l 0.8,2.28 0.64,-0.65 c 0.8,-0.98 1.29,-1.47 1.29,-1.47 0,-0.16 -0.17,-0.33 -0.33,-0.33 H 6.73 L 6.57,-7.84 V -8 c 0.16,-0.17 0.16,-0.33 0.16,-0.33 h 0.16 c 0,0 0.16,0 0.33,0 0.16,0 0.32,0 0.64,0 0.16,0 0.32,0 0.48,0 0.64,0 1.12,0 1.12,0 h 0.16 v 0.16 c 0,0.17 0,0.33 -0.16,0.49 H 9.3 c -0.16,0 -0.48,0 -0.64,0 -0.32,0.17 -0.48,0.17 -0.48,0.17 -0.16,0.16 -0.32,0.16 -0.32,0.32 H 7.7 c 0,0 -0.32,0.49 -1.13,1.31 l -0.96,1.14 c 0,0 0,0.33 0.32,0.98 0.16,0.66 0.48,1.31 0.8,1.96 0.16,0.82 0.32,1.15 0.32,1.15 0.17,0 0.33,0 0.81,0.16 0.32,0 0.48,0 0.48,0 0,0 0,0.17 -0.16,0.17 0,0.16 0,0.32 0,0.32 H 8.02 C 8.02,0 7.86,0 7.54,0 7.38,0 7.05,0 6.57,0 6.09,0 5.61,0 5.45,0 5.13,0 4.97,0 4.97,0 4.81,0 4.81,0 4.81,-0.16 v -0.16 -0.17 h 0.16 0.16 c 0,-0.16 0,-0.16 0.16,-0.16 0,0 0.16,0 0.32,0 l 0.16,-0.16 c 0,0 -0.16,-0.5 -0.64,-1.48 l -0.48,-1.3 c -1.44,1.63 -2.24,2.45 -2.24,2.61 -0.16,0 -0.16,0 -0.16,0.17 0,0.16 0.16,0.16 0.32,0.16 h 0.16 v 0.16 h 0.16 c 0,0.17 0,0.17 0,0.33 V 0 C 2.73,0 2.73,0 2.57,0 H 2.41 C 2.25,0 2.09,0 1.93,0 1.77,0 1.45,0 1.29,0 0.65,0 0.16,0 0,0 Z"
       id="path121" />
    <path
       transform="matrix(0.75,0,0,0.75,288.78,45.607503)"
       d="m 0,0 v -12.26 h 1.6 v 0.49 H 0.48 V -0.49 H 1.6 V 0 Z"
       id="path122" />
    <path
       transform="matrix(0.75,0,0,0.75,288.78,45.607503)"
       stroke-width="0.16"
       stroke-linecap="butt"
       stroke-miterlimit="4"
       stroke-linejoin="miter"
       fill="none"
       stroke="#000000"
       d="m 0,0 v -12.26 h 1.6 v 0.49 H 0.48 V -0.49 H 1.6 V 0 Z"
       id="path123" />
    <path
       transform="matrix(0.75,0,0,0.75,290.9475,41.07)"
       d="m 0,0 v -0.16 l 0.16,-0.17 h 7.05 l 0.16,0.17 C 7.37,0 7.21,0 7.21,0.16 H 0.16 C 0.16,0 0,0 0,-0.16 Z"
       id="path124" />
    <path
       transform="matrix(0.75,0,0,0.75,290.9475,41.07)"
       stroke-width="0.16"
       stroke-linecap="butt"
       stroke-miterlimit="4"
       stroke-linejoin="miter"
       fill="none"
       stroke="#000000"
       d="m 0,0 v -0.16 l 0.16,-0.17 h 7.05 l 0.16,0.17 C 7.37,0 7.21,0 7.21,0.16 H 0.16 C 0.16,0 0,0 0,-0.16 Z"
       id="path125" />
    <path
       transform="matrix(0.75,0,0,0.75,297.435,40.7025)"
       d="m 0,0 c 0,-0.16 0,-0.16 0,-0.33 0,0 0,-0.16 0.16,-0.32 0,-0.33 0.16,-0.49 0.16,-0.66 0.16,-0.16 0.16,-0.32 0.48,-0.49 0.16,-0.16 0.32,-0.16 0.48,-0.16 0.16,0 0.32,0 0.48,0.16 0.16,0 0.32,0 0.32,0.17 0.16,0.16 0.16,0.16 0.16,0.32 0.16,0 0.16,0.17 0.16,0.17 v 0.16 l 0.16,-0.16 c 0.48,-0.49 1.12,-0.82 1.76,-0.82 0,0 0.16,0 0.32,0 0.17,0 0.17,0 0.33,0.16 h 0.16 l 0.16,0.17 0.16,0.16 c 0,0.16 0,0.16 0.16,0.16 v 0.17 0.16 h 0.16 c 0.48,-0.65 1.12,-0.98 1.76,-0.98 0.48,0 0.8,0.16 0.96,0.33 0.32,0.16 0.48,0.49 0.48,0.98 0,0.32 -0.16,0.98 -0.48,1.96 -0.32,0.81 -0.48,1.31 -0.48,1.47 0,0.16 0.16,0.16 0.16,0.33 H 8.33 C 8.49,3.11 8.81,2.94 8.97,2.78 9.13,2.45 9.29,2.12 9.45,1.8 V 1.63 h 0.16 c 0.16,0 0.32,0 0.32,0 0,0 0,0.17 -0.16,0.17 0,0.32 0,0.49 -0.16,0.82 C 9.45,2.78 9.29,2.94 8.97,3.27 8.81,3.43 8.49,3.6 8.17,3.6 7.85,3.6 7.53,3.43 7.37,3.27 7.21,2.94 7.21,2.78 7.21,2.62 7.21,2.45 7.37,1.96 7.53,1.14 7.85,0.33 8.01,-0.33 8.01,-0.82 8.01,-1.31 7.85,-1.47 7.53,-1.47 H 7.37 c -0.64,0 -1.12,0.33 -1.6,1.14 L 5.61,-0.16 5.29,1.47 C 4.97,2.62 4.81,3.11 4.81,3.27 4.64,3.43 4.48,3.6 4.32,3.6 4.16,3.6 4,3.6 4,3.43 4,3.43 3.84,3.43 3.84,3.27 3.84,3.11 4,2.62 4.32,1.47 l 0.32,-1.8 c 0,-0.16 0,-0.32 0,-0.49 0,-0.49 -0.16,-0.65 -0.48,-0.65 -0.64,0 -1.28,0.33 -1.76,1.14 L 2.24,-0.16 1.92,1.47 C 1.6,2.62 1.44,3.11 1.44,3.27 1.44,3.43 1.28,3.6 0.96,3.6 0.8,3.6 0.8,3.6 0.64,3.43 V 3.27 H 0.48 C 0.48,3.11 0.64,2.45 0.96,1.14 1.28,0 1.44,-0.65 1.44,-0.65 c 0,-0.17 0,-0.33 0,-0.33 0,-0.33 0,-0.49 -0.16,-0.49 -0.32,0 -0.32,0.16 -0.48,0.33 C 0.64,-0.98 0.64,-0.65 0.48,-0.49 0.48,-0.16 0.32,0 0.32,0 H 0.16 Z"
       id="path126" />
    <path
       transform="matrix(0.75,0,0,0.75,297.435,40.7025)"
       stroke-width="0.16"
       stroke-linecap="butt"
       stroke-miterlimit="4"
       stroke-linejoin="miter"
       fill="none"
       stroke="#000000"
       d="m 0,0 c 0,-0.16 0,-0.16 0,-0.33 0,0 0,-0.16 0.16,-0.32 0,-0.33 0.16,-0.49 0.16,-0.66 0.16,-0.16 0.16,-0.32 0.48,-0.49 0.16,-0.16 0.32,-0.16 0.48,-0.16 0.16,0 0.32,0 0.48,0.16 0.16,0 0.32,0 0.32,0.17 0.16,0.16 0.16,0.16 0.16,0.32 0.16,0 0.16,0.17 0.16,0.17 v 0.16 l 0.16,-0.16 c 0.48,-0.49 1.12,-0.82 1.76,-0.82 0,0 0.16,0 0.32,0 0.17,0 0.17,0 0.33,0.16 h 0.16 l 0.16,0.17 0.16,0.16 c 0,0.16 0,0.16 0.16,0.16 v 0.17 0.16 h 0.16 c 0.48,-0.65 1.12,-0.98 1.76,-0.98 0.48,0 0.8,0.16 0.96,0.33 0.32,0.16 0.48,0.49 0.48,0.98 0,0.32 -0.16,0.98 -0.48,1.96 -0.32,0.81 -0.48,1.31 -0.48,1.47 0,0.16 0.16,0.16 0.16,0.33 H 8.33 C 8.49,3.11 8.81,2.94 8.97,2.78 9.13,2.45 9.29,2.12 9.45,1.8 V 1.63 h 0.16 c 0.16,0 0.32,0 0.32,0 0,0 0,0.17 -0.16,0.17 0,0.32 0,0.49 -0.16,0.82 C 9.45,2.78 9.29,2.94 8.97,3.27 8.81,3.43 8.49,3.6 8.17,3.6 7.85,3.6 7.53,3.43 7.37,3.27 7.21,2.94 7.21,2.78 7.21,2.62 7.21,2.45 7.37,1.96 7.53,1.14 7.85,0.33 8.01,-0.33 8.01,-0.82 8.01,-1.31 7.85,-1.47 7.53,-1.47 H 7.37 c -0.64,0 -1.12,0.33 -1.6,1.14 L 5.61,-0.16 5.29,1.47 C 4.97,2.62 4.81,3.11 4.81,3.27 4.64,3.43 4.48,3.6 4.32,3.6 4.16,3.6 4,3.6 4,3.43 4,3.43 3.84,3.43 3.84,3.27 3.84,3.11 4,2.62 4.32,1.47 l 0.32,-1.8 c 0,-0.16 0,-0.32 0,-0.49 0,-0.49 -0.16,-0.65 -0.48,-0.65 -0.64,0 -1.28,0.33 -1.76,1.14 L 2.24,-0.16 1.92,1.47 C 1.6,2.62 1.44,3.11 1.44,3.27 1.44,3.43 1.28,3.6 0.96,3.6 0.8,3.6 0.8,3.6 0.64,3.43 V 3.27 H 0.48 C 0.48,3.11 0.64,2.45 0.96,1.14 1.28,0 1.44,-0.65 1.44,-0.65 c 0,-0.17 0,-0.33 0,-0.33 0,-0.33 0,-0.49 -0.16,-0.49 -0.32,0 -0.32,0.16 -0.48,0.33 C 0.64,-0.98 0.64,-0.65 0.48,-0.49 0.48,-0.16 0.32,0 0.32,0 H 0.16 Z"
       id="path127" />
    <path
       transform="matrix(0.75,0,0,0.75,305.2425,36.78)"
       d="M 0,0 V -0.49 H 1.61 V 11.77 H 0 V 11.28 H 1.12 V 0 Z"
       id="path128" />
    <path
       transform="matrix(0.75,0,0,0.75,305.2425,36.78)"
       stroke-width="0.16"
       stroke-linecap="butt"
       stroke-miterlimit="4"
       stroke-linejoin="miter"
       fill="none"
       stroke="#000000"
       d="M 0,0 V -0.49 H 1.61 V 11.77 H 0 V 11.28 H 1.12 V 0 Z"
       id="path129" />
  </g>
</svg>
